<?xml version="1.0" encoding="utf-8"?>
<!-- Generator: Adobe Illustrator 27.5.0, SVG Export Plug-In . SVG Version: 6.00 Build 0)  -->
<svg version="1.1" xmlns="http://www.w3.org/2000/svg" xmlns:xlink="http://www.w3.org/1999/xlink" x="0px" y="0px"
	 viewBox="0 0 500 500" style="enable-background:new 0 0 500 500;" xml:space="preserve">
<g id="Background_Complete">
	<g>
		<g>
			<g>
				<g>
					<g>
						<rect x="33.898" y="34.085" style="fill:#FAFAFA;" width="96.052" height="85.934"/>
					</g>
				</g>
			</g>
			<g>
				<g>
					<g>
						<g>
							<path style="fill:#E0E0E0;" d="M129.95,120.018c0,0-0.016-0.551-0.024-1.595c-0.006-1.054-0.014-2.596-0.025-4.604
								c-0.013-4.035-0.032-9.932-0.056-17.444c-0.027-15.015-0.066-36.469-0.112-62.29l0.218,0.218
								c-27.662,0.011-60.675,0.025-96.043,0.039h-0.009l0.257-0.257c-0.011,31.264-0.022,60.683-0.031,85.933l-0.226-0.226
								c28.654,0.047,52.637,0.087,69.472,0.114c8.423,0.026,15.054,0.046,19.594,0.059c2.262,0.012,4,0.021,5.187,0.027
								c0.581,0.006,1.025,0.01,1.338,0.013C129.79,120.01,129.95,120.018,129.95,120.018s-0.143,0.008-0.436,0.013
								c-0.307,0.003-0.742,0.007-1.313,0.013c-1.177,0.006-2.901,0.015-5.143,0.027c-4.529,0.014-11.143,0.034-19.543,0.06
								c-16.87,0.027-40.903,0.067-69.617,0.114l-0.226,0v-0.226c-0.009-25.251-0.02-54.67-0.031-85.933v-0.257h0.257h0.009
								c35.368,0.014,68.381,0.028,96.043,0.039h0.218l0,0.218c-0.046,25.878-0.085,47.381-0.112,62.428
								c-0.024,7.491-0.043,13.372-0.056,17.395c-0.011,1.99-0.019,3.518-0.025,4.563C129.966,119.5,129.95,120.018,129.95,120.018z
								"/>
						</g>
					</g>
				</g>
			</g>
		</g>
		<g>
			<g>
				<g>
					<g>
						<path style="fill:#E0E0E0;" d="M70.728,49.354c0,0.142-5.056,0.257-11.291,0.257c-6.237,0-11.292-0.115-11.292-0.257
							s5.055-0.257,11.292-0.257C65.672,49.097,70.728,49.212,70.728,49.354z"/>
					</g>
				</g>
			</g>
		</g>
		<g>
			<g>
				<g>
					<g>
						<path style="fill:#E0E0E0;" d="M111.426,55.806c0,0.142-13.889,0.257-31.019,0.257c-17.136,0-31.022-0.115-31.022-0.257
							c0-0.142,13.886-0.257,31.022-0.257C97.537,55.549,111.426,55.664,111.426,55.806z"/>
					</g>
				</g>
			</g>
		</g>
		<g>
			<g>
				<g>
					<rect x="48.31" y="66.735" style="fill:#E0E0E0;" width="4.047" height="4.047"/>
				</g>
			</g>
		</g>
		<g>
			<g>
				<g>
					<rect x="58.271" y="66.735" style="fill:#E0E0E0;" width="4.047" height="4.047"/>
				</g>
			</g>
		</g>
		<g>
			<g>
				<g>
					<rect x="68.416" y="66.552" style="fill:#E0E0E0;" width="4.046" height="4.047"/>
				</g>
			</g>
		</g>
		<g>
			<g>
				<g>
					<rect x="78.193" y="66.735" style="fill:#E0E0E0;" width="4.047" height="4.047"/>
				</g>
			</g>
		</g>
		<g>
			<g>
				<g>
					<rect x="88.154" y="66.735" style="fill:#E0E0E0;" width="4.047" height="4.047"/>
				</g>
			</g>
		</g>
		<g>
			<g>
				<g>
					<rect x="98.115" y="66.735" style="fill:#E0E0E0;" width="4.047" height="4.047"/>
				</g>
			</g>
		</g>
		<g>
			<g>
				<g>
					<rect x="108.076" y="66.735" style="fill:#EBEBEB;" width="4.047" height="4.047"/>
				</g>
			</g>
		</g>
		<g>
			<g>
				<g>
					<rect x="48.31" y="75.338" style="fill:#EBEBEB;" width="4.047" height="4.047"/>
				</g>
			</g>
		</g>
		<g>
			<g>
				<g>
					<rect x="58.271" y="75.338" style="fill:#E0E0E0;" width="4.047" height="4.047"/>
				</g>
			</g>
		</g>
		<g>
			<g>
				<g>
					<rect x="68.232" y="75.338" style="fill:#EBEBEB;" width="4.047" height="4.047"/>
				</g>
			</g>
		</g>
		<g>
			<g>
				<g>
					<rect x="78.193" y="75.338" style="fill:#E0E0E0;" width="4.047" height="4.047"/>
				</g>
			</g>
		</g>
		<g>
			<g>
				<g>
					<rect x="88.154" y="75.338" style="fill:#E0E0E0;" width="4.047" height="4.047"/>
				</g>
			</g>
		</g>
		<g>
			<g>
				<g>
					<rect x="98.299" y="75.155" style="fill:#E0E0E0;" width="4.046" height="4.047"/>
				</g>
			</g>
		</g>
		<g>
			<g>
				<g>
					<rect x="108.076" y="75.338" style="fill:#E0E0E0;" width="4.047" height="4.047"/>
				</g>
			</g>
		</g>
		<g>
			<g>
				<g>
					<rect x="48.31" y="83.941" style="fill:#E0E0E0;" width="4.047" height="4.047"/>
				</g>
			</g>
		</g>
		<g>
			<g>
				<g>
					<rect x="58.455" y="83.757" style="fill:#E0E0E0;" width="4.047" height="4.047"/>
				</g>
			</g>
		</g>
		<g>
			<g>
				<g>
					<rect x="68.232" y="83.941" style="fill:#E0E0E0;" width="4.047" height="4.047"/>
				</g>
			</g>
		</g>
		<g>
			<g>
				<g>
					<rect x="78.193" y="83.941" style="fill:#EBEBEB;" width="4.047" height="4.047"/>
				</g>
			</g>
		</g>
		<g>
			<g>
				<g>
					<rect x="88.154" y="83.941" style="fill:#E0E0E0;" width="4.047" height="4.047"/>
				</g>
			</g>
		</g>
		<g>
			<g>
				<g>
					<rect x="98.115" y="83.941" style="fill:#E0E0E0;" width="4.047" height="4.047"/>
				</g>
			</g>
		</g>
		<g>
			<g>
				<g>
					<rect x="108.076" y="83.941" style="fill:#E0E0E0;" width="4.047" height="4.047"/>
				</g>
			</g>
		</g>
		<g>
			<g>
				<g>
					<rect x="48.31" y="92.544" style="fill:#E0E0E0;" width="4.047" height="4.047"/>
				</g>
			</g>
		</g>
		<g>
			<g>
				<g>
					<rect x="58.271" y="92.544" style="fill:#E0E0E0;" width="4.047" height="4.047"/>
				</g>
			</g>
		</g>
		<g>
			<g>
				<g>
					<rect x="68.232" y="92.544" style="fill:#E0E0E0;" width="4.047" height="4.047"/>
				</g>
			</g>
		</g>
		<g>
			<g>
				<g>
					<rect x="78.377" y="92.36" style="fill:#E0E0E0;" width="4.047" height="4.047"/>
				</g>
			</g>
		</g>
		<g>
			<g>
				<g>
					<rect x="88.154" y="92.544" style="fill:#E0E0E0;" width="4.047" height="4.047"/>
				</g>
			</g>
		</g>
		<g>
			<g>
				<g>
					<rect x="98.115" y="92.544" style="fill:#EBEBEB;" width="4.047" height="4.047"/>
				</g>
			</g>
		</g>
		<g>
			<g>
				<g>
					<rect x="108.076" y="92.544" style="fill:#E0E0E0;" width="4.047" height="4.047"/>
				</g>
			</g>
		</g>
		<g>
			<g>
				<g>
					<rect x="48.31" y="101.147" style="fill:#E0E0E0;" width="4.047" height="4.047"/>
				</g>
			</g>
		</g>
		<g>
			<g>
				<g>
					<rect x="58.271" y="101.147" style="fill:#EBEBEB;" width="4.047" height="4.047"/>
				</g>
			</g>
		</g>
		<g>
			<g>
				<g>
					<rect x="68.232" y="101.147" style="fill:#E0E0E0;" width="4.047" height="4.047"/>
				</g>
			</g>
		</g>
		<g>
			<g>
				<g>
					<rect x="78.193" y="101.147" style="fill:#E0E0E0;" width="4.047" height="4.047"/>
				</g>
			</g>
		</g>
		<g>
			<g>
				<g>
					<rect x="88.154" y="101.147" style="fill:#E0E0E0;" width="4.047" height="4.047"/>
				</g>
			</g>
		</g>
		<g>
			<g>
				<g>
					<rect x="98.299" y="100.963" style="fill:#E0E0E0;" width="4.046" height="4.047"/>
				</g>
			</g>
		</g>
		<g>
			<g>
				<g>
					<rect x="108.076" y="101.147" style="fill:#E0E0E0;" width="4.047" height="4.047"/>
				</g>
			</g>
		</g>
	</g>
	<g>
		<g>
			<g>
				<rect x="402.456" y="35.834" style="fill:#FFFFFF;" width="68.043" height="68.044"/>
			</g>
			<g>
				<g>
					<path style="fill:#E0E0E0;" d="M470.5,103.877c0,0-0.008-0.115-0.013-0.328c-0.003-0.228-0.007-0.54-0.013-0.946
						c-0.006-0.847-0.015-2.072-0.026-3.664c-0.014-3.214-0.034-7.896-0.059-13.85c-0.028-11.908-0.067-28.889-0.115-49.255
						l0.225,0.225c-19.78,0.01-43.127,0.022-68.037,0.035h-0.006l0.26-0.26c-0.013,24.916-0.025,48.264-0.035,68.043l-0.225-0.225
						c20.368,0.047,37.35,0.087,49.257,0.115c5.954,0.025,10.635,0.045,13.849,0.059c1.592,0.011,2.817,0.02,3.664,0.026
						c0.406,0.006,0.718,0.01,0.946,0.013C470.385,103.869,470.5,103.877,470.5,103.877s-0.098,0.009-0.303,0.013
						c-0.222,0.003-0.526,0.007-0.922,0.013c-0.837,0.006-2.047,0.015-3.62,0.026c-3.202,0.014-7.866,0.034-13.798,0.059
						c-11.942,0.028-28.973,0.067-49.4,0.115l-0.225,0l0-0.226c-0.01-19.779-0.022-43.128-0.035-68.043l0-0.26h0.261h0.006
						c24.91,0.013,48.257,0.025,68.037,0.035l0.226,0l0,0.225c-0.048,20.425-0.087,37.456-0.115,49.399
						c-0.025,5.932-0.045,10.597-0.059,13.799c-0.011,1.574-0.02,2.784-0.026,3.621c-0.005,0.396-0.01,0.7-0.013,0.922
						C470.508,103.779,470.5,103.877,470.5,103.877z"/>
				</g>
			</g>
		</g>
		<g>
			<g>
				<path style="fill:#E0E0E0;" d="M470.206,53.25c0,0.144-15.168,0.26-33.873,0.26c-18.712,0-33.876-0.117-33.876-0.26
					s15.164-0.26,33.876-0.26C455.038,52.989,470.206,53.106,470.206,53.25z"/>
			</g>
		</g>
		<g>
			<circle style="fill:#E0E0E0;" cx="409.076" cy="44.187" r="1.926"/>
		</g>
		<g>
			<circle style="fill:#E0E0E0;" cx="414.96" cy="44.187" r="1.926"/>
		</g>
		<g>
			<path style="fill:#E0E0E0;" d="M422.771,44.187c0,1.064-0.862,1.926-1.926,1.926c-1.064,0-1.926-0.862-1.926-1.926
				c0-1.064,0.862-1.926,1.926-1.926C421.908,42.261,422.771,43.123,422.771,44.187z"/>
		</g>
		<g>
			<circle style="fill:#EBEBEB;" cx="416.241" cy="67.731" r="5.53"/>
		</g>
		<g>
			<path style="fill:#EBEBEB;" d="M421.771,88.036c0,3.054-2.476,5.53-5.53,5.53c-3.054,0-5.53-2.476-5.53-5.53
				c0-3.054,2.476-5.53,5.53-5.53C419.295,82.506,421.771,84.982,421.771,88.036z"/>
		</g>
		<g>
			<g>
				<path style="fill:#E0E0E0;" d="M460.344,67.277c0,0.144-7.564,0.26-16.893,0.26c-9.332,0-16.895-0.117-16.895-0.26
					c0-0.144,7.563-0.26,16.895-0.26C452.78,67.016,460.344,67.133,460.344,67.277z"/>
			</g>
		</g>
		<g>
			<g>
				<path style="fill:#E0E0E0;" d="M438.726,87.934c0,0.144-2.689,0.26-6.005,0.26c-3.317,0-6.005-0.117-6.005-0.26
					c0-0.144,2.688-0.26,6.005-0.26C436.037,87.674,438.726,87.79,438.726,87.934z"/>
			</g>
		</g>
		<g>
			<circle style="fill:#E0E0E0;" cx="460.344" cy="92.765" r="21.45"/>
		</g>
		<g>
			<g>
				<rect x="460.359" y="84.631" style="fill:#FFFFFF;" width="2" height="15.925"/>
			</g>
			<g>
				<rect x="453.397" y="91.594" style="fill:#FFFFFF;" width="15.924" height="2"/>
			</g>
		</g>
	</g>
	<g>
		<g>
			
				<ellipse transform="matrix(0.9209 -0.3898 0.3898 0.9209 -94.6817 40.0489)" style="fill:#E0E0E0;" cx="51.336" cy="253.312" rx="21.45" ry="21.45"/>
		</g>
		<g>
			<g>
				<rect x="51.351" y="245.178" style="fill:#FFFFFF;" width="2" height="15.924"/>
			</g>
			<g>
				<rect x="44.389" y="252.141" style="fill:#FFFFFF;" width="15.925" height="2"/>
			</g>
		</g>
	</g>
	<g>
		<g>
			<g>
				<g>
					<g>
						<g>
							<g>
								<g>
									<g>
										<rect x="165.741" y="348.529" style="fill:#F5F5F5;" width="145.675" height="67.184"/>
									</g>
								</g>
							</g>
						</g>
					</g>
				</g>
				<g>
					<g>
						<g>
							<g>
								<g>
									<g>
										<path style="fill:#E0E0E0;" d="M307.948,412.546H169.075v-60.482h138.874V412.546z M169.981,411.64h137.061v-58.67
											H169.981V411.64z"/>
									</g>
								</g>
							</g>
						</g>
					</g>
				</g>
				<g>
					<g>
						<g>
							<g>
								<g>
									<g>
										<rect x="311.416" y="348.529" style="fill:#E0E0E0;" width="35.588" height="67.184"/>
									</g>
								</g>
							</g>
						</g>
					</g>
				</g>
				<g>
					<g>
						<g>
							<g>
								<g>
									<g>
										<g>
											<path style="fill:#E0E0E0;" d="M169.528,370.782c15.606,0,31.212,0,46.818,0c24.657,0,49.314,0,73.971,0
												c5.726,0,11.452,0,17.178,0c0.235,0,0.236-0.366,0-0.366c-15.606,0-31.212,0-46.818,0c-24.657,0-49.314,0-73.971,0
												c-5.726,0-11.452,0-17.178,0C169.293,370.416,169.292,370.782,169.528,370.782L169.528,370.782z"/>
										</g>
									</g>
								</g>
							</g>
						</g>
					</g>
				</g>
				<g>
					<g>
						<g>
							<g>
								<g>
									<g>
										<g>
											<path style="fill:#E0E0E0;" d="M238.962,370.599c0.413-5.964,0.369-12.28,0.047-18.249c-0.013-0.239-0.359-0.239-0.372,0
												c-0.322,5.969-0.367,12.285,0.047,18.249C238.697,370.777,238.95,370.778,238.962,370.599L238.962,370.599z"/>
										</g>
									</g>
								</g>
							</g>
						</g>
					</g>
				</g>
				<g>
					<g>
						<g>
							<g>
								<g>
									<g>
										<path style="fill:#E0E0E0;" d="M276.098,361.474c0,1.038-0.842,1.88-1.88,1.88c-1.038,0-1.88-0.842-1.88-1.88
											s0.841-1.88,1.88-1.88C275.257,359.595,276.098,360.436,276.098,361.474z"/>
									</g>
								</g>
							</g>
						</g>
					</g>
				</g>
				<g>
					<g>
						<g>
							<g>
								<g>
									<g>
										<path style="fill:#E0E0E0;" d="M203.693,361.474c0,1.038-0.842,1.88-1.879,1.88c-1.038,0-1.88-0.842-1.88-1.88
											s0.842-1.88,1.88-1.88C202.851,359.595,203.693,360.436,203.693,361.474z"/>
									</g>
								</g>
							</g>
						</g>
					</g>
				</g>
				<g>
					<g>
						<g>
							<g>
								<g>
									<g>
										<path style="fill:#E0E0E0;" d="M240.391,382.305c0,1.038-0.841,1.88-1.88,1.88c-1.038,0-1.88-0.841-1.88-1.88
											c0-1.038,0.841-1.879,1.88-1.879C239.55,380.426,240.391,381.267,240.391,382.305z"/>
									</g>
								</g>
							</g>
						</g>
					</g>
				</g>
				<g>
					<g>
						<g>
							<g>
								<g>
									<g>
										<polygon style="fill:#E0E0E0;" points="183.158,415.713 175.657,457.892 179.876,457.892 193.704,415.713 										"/>
									</g>
								</g>
							</g>
						</g>
					</g>
				</g>
				<g>
					<g>
						<g>
							<g>
								<g>
									<g>
										<polygon style="fill:#E0E0E0;" points="301.109,415.713 307.381,457.965 303.163,457.965 290.562,415.713 										"/>
									</g>
								</g>
							</g>
						</g>
					</g>
				</g>
				<g>
					<g>
						<g>
							<g>
								<g>
									<g>
										<polygon style="fill:#E0E0E0;" points="329.271,415.713 336.377,457.965 332.158,457.965 318.724,415.713 										"/>
									</g>
								</g>
							</g>
						</g>
					</g>
				</g>
				<g>
					<g>
						<g>
							<g>
								<g>
									<g>
										<path style="fill:#E0E0E0;" d="M240.265,401.319c0,1.038-0.841,1.879-1.879,1.879c-1.038,0-1.88-0.841-1.88-1.879
											c0-1.038,0.842-1.88,1.88-1.88C239.424,399.44,240.265,400.281,240.265,401.319z"/>
									</g>
								</g>
							</g>
						</g>
					</g>
				</g>
				<g>
					<g>
						<g>
							<g>
								<g>
									<g>
										<g>
											<path style="fill:#E0E0E0;" d="M169.528,391.586c15.606,0,31.212,0,46.818,0c24.657,0,49.314,0,73.971,0
												c5.726,0,11.452,0,17.178,0c0.235,0,0.236-0.366,0-0.366c-15.606,0-31.212,0-46.818,0c-24.657,0-49.314,0-73.971,0
												c-5.726,0-11.452,0-17.178,0C169.293,391.221,169.292,391.586,169.528,391.586L169.528,391.586z"/>
										</g>
									</g>
								</g>
							</g>
						</g>
					</g>
				</g>
			</g>
		</g>
	</g>
</g>
<g id="Background_Simple" style="display:none;">
	<g style="display:inline;">
		<path style="fill:#F5F5F5;" d="M428.384,104.851l-2.434-4.01c-20.516-33.808-57.609-54.188-96.717-51.715
			c-5.027,0.318-10.033,0.998-14.971,2.056c-35.557,7.611-66.496,34.5-79.321,68.937c-7.542,20.253-9.649,43.572-23.962,59.647
			c-18.627,20.922-50.251,21.579-78.055,20.712c-27.804-0.867-59.449-0.128-77.985,20.877
			c-11.609,13.154-15.299,31.861-14.362,49.478c2.478,46.641,34.979,88.345,76.311,109.074
			c41.332,20.729,89.996,22.586,135.232,13.467c63.37-12.774,123.634-47.855,159.857-102.039
			C448.199,237.152,457.367,163.332,428.384,104.851z"/>
	</g>
</g>
<g id="Floor">
	<g>
		<g>
			<path style="fill:#263238;" d="M461.429,458.079c0,0.144-97.802,0.26-218.418,0.26c-120.659,0-218.439-0.117-218.439-0.26
				s97.781-0.26,218.439-0.26C363.627,457.818,461.429,457.935,461.429,458.079z"/>
		</g>
	</g>
</g>
<g id="Screen">
	<g>
		<g>
			<g>
				<g>
					<g>
						<rect x="86.456" y="68.725" style="fill:#FFFFFF;" width="299.894" height="264.224"/>
					</g>
				</g>
				<g>
					<g>
						<rect x="86.456" y="229.593" style="fill:#FFFFFF;" width="299.894" height="44.643"/>
					</g>
				</g>
				<g>
					<g>
						<rect x="86.456" y="178.515" style="fill:#F5F5F5;" width="299.894" height="51.078"/>
					</g>
				</g>
				<g>
					<g>
						<rect x="86.456" y="281.53" style="fill:#F5F5F5;" width="299.894" height="51.078"/>
					</g>
				</g>
				<g>
					<g>
						<g>
							<path style="fill:#263238;" d="M267.528,194.425c0,0.144-35.366,0.26-78.983,0.26c-43.632,0-78.991-0.117-78.991-0.26
								c0-0.144,35.359-0.26,78.991-0.26C232.161,194.164,267.528,194.281,267.528,194.425z"/>
						</g>
					</g>
				</g>
				<g>
					<g>
						<g>
							<path style="fill:#263238;" d="M176.235,208.641c0,0.144-15.03,0.26-33.566,0.26c-18.542,0-33.569-0.117-33.569-0.26
								s15.027-0.26,33.569-0.26C161.205,208.381,176.235,208.497,176.235,208.641z"/>
						</g>
					</g>
				</g>
				<g>
					<g>
						<g>
							<path style="fill:#263238;" d="M267.528,244.806c0,0.144-35.366,0.26-78.983,0.26c-43.632,0-78.991-0.117-78.991-0.26
								c0-0.144,35.359-0.26,78.991-0.26C232.161,244.546,267.528,244.663,267.528,244.806z"/>
						</g>
					</g>
				</g>
				<g>
					<g>
						<g>
							<path style="fill:#263238;" d="M176.235,259.023c0,0.144-15.03,0.26-33.566,0.26c-18.542,0-33.569-0.117-33.569-0.26
								s15.027-0.26,33.569-0.26C161.205,258.762,176.235,258.879,176.235,259.023z"/>
						</g>
					</g>
				</g>
				<g>
					<g>
						<g>
							<path style="fill:#263238;" d="M267.528,295.188c0,0.144-35.366,0.26-78.983,0.26c-43.632,0-78.991-0.116-78.991-0.26
								c0-0.144,35.359-0.26,78.991-0.26C232.161,294.928,267.528,295.044,267.528,295.188z"/>
						</g>
					</g>
				</g>
				<g>
					<g>
						<g>
							<path style="fill:#263238;" d="M176.235,309.404c0,0.144-15.03,0.26-33.566,0.26c-18.542,0-33.569-0.117-33.569-0.26
								c0-0.144,15.027-0.26,33.569-0.26C161.205,309.144,176.235,309.261,176.235,309.404z"/>
						</g>
					</g>
				</g>
				<g>
					<g>
						<rect x="86.456" y="68.386" style="fill:#E0E0E0;" width="299.894" height="25.206"/>
					</g>
				</g>
				<g>
					<g>
						<rect x="86.456" y="91.209" style="fill:#F5F5F5;" width="299.894" height="25.206"/>
					</g>
				</g>
				<g>
					<g>
						<g>
							<path style="fill:#263238;" d="M104.515,80.203c0,1.749-1.418,3.167-3.167,3.167s-3.167-1.418-3.167-3.167
								s1.418-3.167,3.167-3.167S104.515,78.454,104.515,80.203z"/>
						</g>
					</g>
					<g>
						<g>
							<path style="fill:#263238;" d="M116.126,80.203c0,1.749-1.418,3.167-3.167,3.167s-3.167-1.418-3.167-3.167
								s1.418-3.167,3.167-3.167S116.126,78.454,116.126,80.203z"/>
						</g>
					</g>
					<g>
						<g>
							<path style="fill:#263238;" d="M127.738,80.203c0,1.749-1.418,3.167-3.167,3.167s-3.167-1.418-3.167-3.167
								s1.418-3.167,3.167-3.167S127.738,78.454,127.738,80.203z"/>
						</g>
					</g>
				</g>
			</g>
			<g>
				<g>
					<g>
						<path style="fill:#263238;" d="M386.406,332.949c-0.001-1.677-0.058-102.972-0.15-264.563l0.15,0.206
							c-81.935,0.015-186.365,0.034-299.737,0.054h-0.024l0.189-0.26c-0.005,93.917-0.01,183.357-0.015,264.563l-0.174-0.24
							C262.866,332.85,384.838,332.948,386.406,332.949c-1.567,0.001-123.54,0.099-299.761,0.24l-0.175,0v-0.24
							c-0.005-81.206-0.01-170.645-0.015-264.563v-0.261h0.19h0.024c113.372,0.021,217.802,0.04,299.737,0.054h0.15l0,0.206
							C386.464,229.977,386.407,331.273,386.406,332.949z"/>
					</g>
				</g>
			</g>
		</g>
		<g>
			<g>
				<path style="fill:#FF725E;" d="M347.54,159.195h-70.981c-3.185,0-5.768-2.582-5.768-5.768v-16.374
					c0-3.186,2.582-5.768,5.768-5.768h70.981c3.186,0,5.768,2.582,5.768,5.768v16.374
					C353.307,156.612,350.725,159.195,347.54,159.195z"/>
			</g>
			<g>
				<path style="fill:#FFFFFF;" d="M290.044,145.077h-1.797v1.768h-0.829v-1.768h-1.797v-0.78h1.797v-1.776h0.829v1.776h1.797
					V145.077z"/>
				<path style="fill:#FFFFFF;" d="M298.805,146.411h-3.672l-0.761,1.727h-1.017l3.13-6.911h0.977l3.14,6.911h-1.036
					L298.805,146.411z M298.46,145.62l-1.49-3.386l-1.491,3.386H298.46z"/>
				<path style="fill:#FFFFFF;" d="M306.382,140.813v7.325h-0.908v-0.829c-0.425,0.592-1.097,0.889-1.866,0.889
					c-1.53,0-2.646-1.076-2.646-2.676c0-1.6,1.115-2.666,2.646-2.666c0.74,0,1.392,0.277,1.826,0.84v-2.883H306.382z
					 M305.443,145.522c0-1.115-0.76-1.836-1.757-1.836c-1.007,0-1.768,0.721-1.768,1.836c0,1.115,0.761,1.846,1.768,1.846
					C304.683,147.367,305.443,146.637,305.443,145.522z"/>
				<path style="fill:#FFFFFF;" d="M313.118,140.813v7.325h-0.908v-0.829c-0.425,0.592-1.097,0.889-1.866,0.889
					c-1.53,0-2.646-1.076-2.646-2.676c0-1.6,1.115-2.666,2.646-2.666c0.74,0,1.392,0.277,1.826,0.84v-2.883H313.118z
					 M312.179,145.522c0-1.115-0.76-1.836-1.757-1.836c-1.007,0-1.768,0.721-1.768,1.836c0,1.115,0.761,1.846,1.768,1.846
					C311.42,147.367,312.179,146.637,312.179,145.522z"/>
				<path style="fill:#FFFFFF;" d="M319.086,142.086h-2.37v-0.859h5.717v0.859h-2.369v6.052h-0.977V142.086z"/>
				<path style="fill:#FFFFFF;" d="M327.244,144.979v3.159h-0.898v-0.691c-0.316,0.475-0.898,0.751-1.718,0.751
					c-1.185,0-1.936-0.632-1.936-1.54c0-0.84,0.543-1.53,2.104-1.53h1.5v-0.188c0-0.8-0.464-1.264-1.401-1.264
					c-0.622,0-1.254,0.217-1.659,0.563l-0.395-0.711c0.543-0.435,1.323-0.672,2.162-0.672
					C326.434,142.856,327.244,143.547,327.244,144.979z M326.296,146.538v-0.73h-1.461c-0.938,0-1.204,0.365-1.204,0.81
					c0,0.523,0.435,0.85,1.155,0.85C325.497,147.467,326.059,147.141,326.296,146.538z"/>
				<path style="fill:#FFFFFF;" d="M328.342,147.585l0.395-0.75c0.444,0.315,1.155,0.543,1.836,0.543
					c0.879,0,1.244-0.267,1.244-0.711c0-1.175-3.308-0.158-3.308-2.241c0-0.939,0.84-1.57,2.183-1.57
					c0.681,0,1.451,0.178,1.905,0.475l-0.405,0.75c-0.474-0.306-0.997-0.415-1.51-0.415c-0.83,0-1.234,0.307-1.234,0.721
					c0,1.234,3.317,0.228,3.317,2.261c0,0.948-0.869,1.551-2.261,1.551C329.635,148.198,328.776,147.931,328.342,147.585z"/>
				<path style="fill:#FFFFFF;" d="M335.986,145.699l-1.086,1.007v1.432h-0.947v-7.325h0.947v4.699l2.854-2.606h1.145l-2.202,2.162
					l2.419,3.07h-1.165L335.986,145.699z"/>
			</g>
		</g>
		<g>
			<path style="fill:#263238;" d="M119.56,142.873h-2.987v-1.76h8.135v1.76h-2.987v7.575h-2.16V142.873z"/>
			<path style="fill:#263238;" d="M131.548,148.449h-4.334l-0.827,2h-2.214l4.161-9.335h2.134l4.174,9.335h-2.267L131.548,148.449z
				 M130.868,146.808l-1.48-3.574l-1.48,3.574H130.868z"/>
			<path style="fill:#263238;" d="M134.882,149.529l0.733-1.627c0.787,0.573,1.961,0.974,3.081,0.974
				c1.28,0,1.801-0.427,1.801-1.001c0-1.747-5.428-0.547-5.428-4.014c0-1.587,1.28-2.907,3.934-2.907
				c1.174,0,2.374,0.28,3.241,0.826l-0.667,1.641c-0.867-0.493-1.761-0.733-2.588-0.733c-1.279,0-1.773,0.48-1.773,1.067
				c0,1.72,5.428,0.533,5.428,3.96c0,1.561-1.293,2.895-3.961,2.895C137.203,150.609,135.709,150.168,134.882,149.529z"/>
			<path style="fill:#263238;" d="M147.525,146.782l-1.254,1.307v2.36h-2.147v-9.335h2.147v4.36l4.135-4.36h2.4l-3.868,4.16
				l4.095,5.175h-2.52L147.525,146.782z"/>
			<path style="fill:#263238;" d="M153.058,149.529l0.733-1.627c0.787,0.573,1.961,0.974,3.081,0.974
				c1.28,0,1.801-0.427,1.801-1.001c0-1.747-5.428-0.547-5.428-4.014c0-1.587,1.28-2.907,3.933-2.907
				c1.174,0,2.374,0.28,3.241,0.826l-0.667,1.641c-0.867-0.493-1.761-0.733-2.588-0.733c-1.279,0-1.773,0.48-1.773,1.067
				c0,1.72,5.428,0.533,5.428,3.96c0,1.561-1.293,2.895-3.961,2.895C155.379,150.609,153.885,150.168,153.058,149.529z"/>
		</g>
		<g>
			<path style="fill:#E0E0E0;" d="M360.007,215.796h-43.805c-4.89,0-8.854-3.964-8.854-8.853v0c0-4.89,3.964-8.853,8.854-8.853
				h43.805c4.89,0,8.853,3.964,8.853,8.853v0C368.861,211.832,364.897,215.796,360.007,215.796z"/>
		</g>
		<g>
			<path style="fill:#EBEBEB;" d="M360.007,266.933h-43.805c-4.89,0-8.854-3.964-8.854-8.853l0,0c0-4.89,3.964-8.854,8.854-8.854
				h43.805c4.89,0,8.853,3.964,8.853,8.854l0,0C368.861,262.969,364.897,266.933,360.007,266.933z"/>
		</g>
		<g>
			<path style="fill:#E0E0E0;" d="M360.007,317.03h-43.805c-4.89,0-8.854-3.964-8.854-8.853v0c0-4.89,3.964-8.853,8.854-8.853
				h43.805c4.89,0,8.853,3.964,8.853,8.853v0C368.861,313.067,364.897,317.03,360.007,317.03z"/>
		</g>
	</g>
</g>
<g id="Plant">
	<g>
		<g>
			<g>
				<g>
					<g>
						<g>
							<path style="fill:#FF725E;" d="M78.987,385.158c-8.042,2.808-18.533,0.299-25.413-4.725
								c-6.88-5.024-11.83-12.222-16.218-19.524c-1.873-3.116-3.7-6.364-4.292-9.951c-0.592-3.586,0.28-7.622,3.061-9.962
								c4.323-3.638,10.946-1.792,15.856,1.004C67.344,350.75,77.835,367.515,78.987,385.158"/>
						</g>
					</g>
				</g>
			</g>
			<g>
				<g>
					<g>
						<g>
							<path style="fill:#FF725E;" d="M70.352,404.407c-4.83,6.372-13.128,9.209-21.115,9.578
								c-7.987,0.37-15.879-1.838-23.344-4.703c-2.708-1.039-5.672-2.464-6.601-5.212c-0.703-2.08,0.02-4.451,1.414-6.148
								c1.394-1.697,3.37-2.814,5.39-3.674c7.348-3.13,15.766-3.277,23.497-1.272C57.325,394.982,64.078,399.464,70.352,404.407"/>
						</g>
					</g>
				</g>
			</g>
			<g>
				<g>
					<g>
						<g>
							<path style="fill:#FF725E;" d="M79.104,350.705c-6.657,0.133-11.697-5.699-14.711-11.636
								c-4.174-8.222-5.588-17.815-3.965-26.892c0.609-3.402,1.895-7.07,4.939-8.707c3.094-1.663,7.119-0.567,9.714,1.801
								c2.594,2.368,4.014,5.747,5.051,9.103C83.705,325.936,82.936,339.225,79.104,350.705"/>
						</g>
					</g>
				</g>
			</g>
			<g>
				<g>
					<g>
						<g>
							<path style="fill:#FF725E;" d="M100.972,387.528c-11.351-19.318-13.242-42.955-6.538-64.335
								c1.088-3.468,3.14-7.437,6.767-7.667c4.017-0.255,6.535,4.224,7.644,8.094c3.892,13.576,3.064,27.996,2.204,42.093
								C110.519,374.396,107.536,381.819,100.972,387.528"/>
						</g>
					</g>
				</g>
			</g>
			<g>
				<g>
					<g>
						<g>
							<path style="fill:#FF725E;" d="M112.776,395.472c4.112-13.23,14.577-24.327,27.543-29.208
								c3.014-1.135,6.847-1.782,9.095,0.525c2.205,2.262,1.526,6.043,0.111,8.868c-2.285,4.563-5.995,8.228-9.691,11.746
								c-3.362,3.2-6.856,6.412-11.108,8.271C124.473,397.534,116.664,398.007,112.776,395.472"/>
						</g>
					</g>
				</g>
			</g>
			<g>
				<g>
					<g>
						<g>
							<g>
								<path style="fill:#263238;" d="M42.402,345.842c-0.005,0.008,0.062,0.067,0.198,0.177c0.163,0.126,0.364,0.282,0.611,0.474
									c0.578,0.432,1.373,1.026,2.379,1.779c0.522,0.385,1.098,0.811,1.726,1.274c0.62,0.48,1.268,1.035,1.979,1.611
									c1.405,1.174,3.066,2.438,4.737,4.027c0.853,0.775,1.746,1.587,2.676,2.432c0.926,0.85,1.817,1.81,2.78,2.762
									c1.954,1.879,3.846,4.071,5.881,6.335c3.939,4.642,7.981,9.995,11.705,15.956c3.669,5.999,6.65,12.009,9.042,17.608
									c1.115,2.833,2.23,5.506,3.038,8.094c0.42,1.287,0.881,2.514,1.227,3.722c0.34,1.21,0.667,2.371,0.979,3.481
									c0.675,2.205,1.062,4.256,1.484,6.037c0.198,0.894,0.405,1.721,0.557,2.49c0.134,0.769,0.257,1.474,0.368,2.113
									c0.223,1.237,0.399,2.213,0.527,2.923c0.061,0.308,0.111,0.557,0.151,0.759c0.037,0.17,0.06,0.257,0.069,0.256
									c0.009-0.001,0.004-0.09-0.015-0.264c-0.026-0.204-0.058-0.456-0.098-0.767c-0.104-0.715-0.248-1.698-0.429-2.943
									c-0.098-0.643-0.205-1.352-0.323-2.126c-0.137-0.774-0.33-1.606-0.514-2.505c-0.395-1.792-0.758-3.854-1.411-6.073
									c-0.303-1.116-0.619-2.285-0.949-3.502c-0.337-1.216-0.789-2.45-1.202-3.744c-0.792-2.603-1.895-5.292-3.003-8.142
									c-2.376-5.632-5.357-11.676-9.042-17.7c-3.74-5.988-7.812-11.355-11.787-15.998c-2.053-2.264-3.965-4.453-5.939-6.326
									c-0.973-0.948-1.875-1.904-2.812-2.749c-0.941-0.839-1.845-1.645-2.708-2.414c-1.692-1.576-3.375-2.823-4.801-3.978
									c-0.722-0.567-1.38-1.111-2.011-1.58c-0.639-0.451-1.226-0.865-1.757-1.239c-1.033-0.719-1.848-1.286-2.441-1.699
									c-0.26-0.175-0.471-0.316-0.642-0.431C42.485,345.879,42.408,345.835,42.402,345.842z"/>
							</g>
						</g>
					</g>
				</g>
			</g>
			<g>
				<g>
					<g>
						<g>
							<g>
								<path style="fill:#263238;" d="M27.371,399.393c0.005,0.018,0.273-0.027,0.779-0.13c0.508-0.091,1.244-0.288,2.211-0.448
									c1.921-0.376,4.728-0.8,8.218-1.005c6.944-0.444,16.813,0.379,26.689,4.49c9.881,4.109,17.42,10.532,22,15.771
									c2.314,2.621,3.992,4.91,5.079,6.538c0.567,0.799,0.947,1.459,1.24,1.884c0.284,0.431,0.441,0.653,0.457,0.644
									c0.016-0.009-0.11-0.25-0.364-0.7c-0.264-0.444-0.616-1.123-1.158-1.942c-1.037-1.668-2.676-4.004-4.968-6.673
									c-4.534-5.335-12.104-11.867-22.079-16.015c-9.97-4.15-19.938-4.917-26.919-4.373c-3.509,0.255-6.321,0.739-8.236,1.179
									c-0.963,0.193-1.694,0.422-2.195,0.547C27.626,399.295,27.366,399.375,27.371,399.393z"/>
							</g>
						</g>
					</g>
				</g>
			</g>
			<g>
				<g>
					<g>
						<g>
							<g>
								<path style="fill:#263238;" d="M69.291,311.182c-0.009,0.002,0.006,0.104,0.044,0.3c0.047,0.225,0.106,0.511,0.181,0.868
									c0.179,0.798,0.429,1.911,0.746,3.326c0.654,2.887,1.651,7.052,2.904,12.193c2.5,10.284,6.135,24.444,9.921,40.136
									c1.881,7.852,3.584,15.351,5.051,22.19c1.44,6.844,2.668,13.022,3.582,18.231c0.49,2.599,0.859,4.963,1.208,7.035
									c0.357,2.071,0.632,3.859,0.846,5.323c0.223,1.432,0.398,2.559,0.524,3.366c0.062,0.36,0.111,0.647,0.149,0.874
									c0.037,0.197,0.06,0.296,0.069,0.295c0.009-0.001,0.004-0.104-0.015-0.303c-0.025-0.228-0.057-0.518-0.097-0.881
									c-0.102-0.811-0.244-1.943-0.424-3.381c-0.182-1.469-0.427-3.263-0.756-5.34c-0.321-2.078-0.664-4.448-1.13-7.053
									c-0.867-5.222-2.058-11.413-3.472-18.268c-1.442-6.849-3.132-14.357-5.014-22.213c-3.788-15.699-7.48-29.844-10.074-40.103
									c-1.288-5.102-2.335-9.243-3.069-12.15c-0.359-1.405-0.642-2.51-0.844-3.302c-0.096-0.352-0.172-0.634-0.233-0.856
									C69.333,311.278,69.3,311.18,69.291,311.182z"/>
							</g>
						</g>
					</g>
				</g>
			</g>
			<g>
				<g>
					<g>
						<g>
							<g>
								<path style="fill:#263238;" d="M95.356,423.764c0.009,0.002,0.033-0.077,0.072-0.234c0.043-0.188,0.095-0.417,0.158-0.697
									c0.137-0.659,0.324-1.556,0.559-2.689c0.481-2.337,1.118-5.729,1.845-9.933c1.455-8.404,3.181-20.077,4.243-33.058
									c0.514-6.493,0.801-12.693,0.926-18.335c0.094-5.642,0.044-10.725-0.132-14.989c-0.052-2.133-0.193-4.059-0.286-5.751
									c-0.087-1.693-0.206-3.147-0.316-4.335c-0.106-1.152-0.19-2.065-0.252-2.735c-0.032-0.285-0.058-0.518-0.079-0.71
									c-0.021-0.16-0.036-0.241-0.045-0.24c-0.009,0.001-0.012,0.084-0.009,0.245c0.007,0.193,0.016,0.427,0.026,0.714
									c0.037,0.672,0.088,1.586,0.152,2.741c0.078,1.189,0.166,2.644,0.225,4.337c0.064,1.692,0.178,3.616,0.206,5.747
									c0.128,4.259,0.137,9.334,0.017,14.966c-0.152,5.632-0.453,11.82-0.967,18.302c-1.059,12.96-2.724,24.625-4.082,33.039
									c-0.679,4.208-1.26,7.609-1.677,9.956c-0.194,1.141-0.347,2.044-0.46,2.707c-0.043,0.284-0.078,0.516-0.106,0.707
									C95.353,423.68,95.347,423.763,95.356,423.764z"/>
							</g>
						</g>
					</g>
				</g>
			</g>
			<g>
				<g>
					<g>
						<g>
							<g>
								<path style="fill:#263238;" d="M94.516,426.218c0.018,0.006,0.119-0.224,0.296-0.667c0.19-0.494,0.438-1.139,0.748-1.943
									c0.162-0.428,0.34-0.896,0.533-1.405c0.226-0.505,0.469-1.05,0.729-1.633c0.261-0.589,0.539-1.215,0.833-1.877
									c0.293-0.665,0.674-1.335,1.033-2.057c0.37-0.719,0.757-1.47,1.159-2.252c0.443-0.762,0.904-1.554,1.38-2.374
									c0.911-1.666,2.09-3.321,3.228-5.124c2.434-3.505,5.293-7.229,8.549-10.926c3.29-3.669,6.647-6.954,9.811-9.821
									c1.631-1.376,3.125-2.752,4.635-3.905c0.742-0.591,1.458-1.162,2.149-1.713c0.708-0.522,1.389-1.024,2.04-1.504
									c1.287-0.977,2.498-1.793,3.564-2.508c1.055-0.731,1.978-1.34,2.753-1.805c0.727-0.461,1.311-0.831,1.759-1.115
									c0.399-0.26,0.605-0.405,0.596-0.421c-0.009-0.016-0.232,0.097-0.65,0.327c-0.461,0.262-1.063,0.604-1.813,1.03
									c-0.794,0.439-1.735,1.024-2.809,1.733c-1.085,0.693-2.316,1.49-3.621,2.451c-0.66,0.473-1.35,0.967-2.068,1.482
									c-0.699,0.544-1.425,1.11-2.176,1.695c-1.527,1.143-3.038,2.512-4.685,3.883c-3.195,2.858-6.579,6.148-9.884,9.834
									c-3.271,3.714-6.134,7.467-8.558,11.005c-1.133,1.82-2.303,3.493-3.203,5.177c-0.469,0.829-0.923,1.63-1.36,2.401
									c-0.394,0.791-0.772,1.552-1.134,2.279c-0.35,0.731-0.721,1.41-1.004,2.083c-0.282,0.671-0.549,1.306-0.799,1.902
									c-0.247,0.591-0.477,1.143-0.691,1.656c-0.178,0.517-0.342,0.992-0.491,1.427c-0.271,0.819-0.488,1.477-0.655,1.981
									C94.566,425.971,94.499,426.212,94.516,426.218z"/>
							</g>
						</g>
					</g>
				</g>
			</g>
			<g>
				<g>
					<g>
						<g>
							<g>
								<path style="fill:#263238;" d="M46.612,368.249c0.002,0.085,1.376,0.085,3.585,0.208c2.209,0.121,5.254,0.41,8.568,1.037
									c3.314,0.633,6.253,1.48,8.353,2.177c2.101,0.695,3.379,1.199,3.412,1.121c0.014-0.034-0.289-0.197-0.852-0.463
									c-0.561-0.27-1.392-0.62-2.434-1.015c-2.081-0.793-5.033-1.708-8.379-2.346c-3.346-0.632-6.428-0.864-8.654-0.889
									c-1.114-0.014-2.015,0.007-2.636,0.052C46.953,368.172,46.611,368.212,46.612,368.249z"/>
							</g>
						</g>
					</g>
				</g>
			</g>
			<g>
				<g>
					<g>
						<g>
							<g>
								<path style="fill:#263238;" d="M38.048,410.072c0.161,0.084,1.445-3.616,4.672-7.048c3.185-3.473,6.779-5.026,6.684-5.181
									c-0.023-0.055-0.944,0.252-2.307,1.02c-1.361,0.763-3.136,2.043-4.769,3.796c-1.628,1.758-2.772,3.621-3.433,5.035
									C38.23,409.112,37.992,410.053,38.048,410.072z"/>
							</g>
						</g>
					</g>
				</g>
			</g>
			<g>
				<g>
					<g>
						<g>
							<g>
								<path style="fill:#263238;" d="M67.249,326.866c-0.109,0.115,1.982,2.187,4.263,4.994c2.292,2.799,3.901,5.263,4.036,5.18
									c0.119-0.067-1.301-2.685-3.621-5.518C69.618,328.681,67.339,326.762,67.249,326.866z"/>
							</g>
						</g>
					</g>
				</g>
			</g>
			<g>
				<g>
					<g>
						<g>
							<g>
								<path style="fill:#263238;" d="M74.107,315.022c-0.146-0.025-0.609,1.981-1.034,4.48c-0.426,2.5-0.652,4.545-0.507,4.57
									c0.145,0.025,0.609-1.981,1.034-4.48C74.026,317.093,74.253,315.047,74.107,315.022z"/>
							</g>
						</g>
					</g>
				</g>
			</g>
			<g>
				<g>
					<g>
						<g>
							<g>
								<path style="fill:#263238;" d="M95.341,352.187c-0.131,0.068,1.357,3.199,3.323,6.992c1.967,3.795,3.667,6.814,3.798,6.746
									c0.131-0.068-1.356-3.198-3.323-6.992C97.173,355.139,95.473,352.119,95.341,352.187z"/>
							</g>
						</g>
					</g>
				</g>
			</g>
			<g>
				<g>
					<g>
						<g>
							<g>
								<path style="fill:#263238;" d="M107.98,339.57c-0.132-0.066-1.393,2.199-2.816,5.058c-1.423,2.86-2.47,5.231-2.337,5.297
									c0.132,0.066,1.393-2.198,2.816-5.058C107.066,342.007,108.113,339.635,107.98,339.57z"/>
							</g>
						</g>
					</g>
				</g>
			</g>
			<g>
				<g>
					<g>
						<g>
							<g>
								<path style="fill:#263238;" d="M126.555,382.721c0.035,0.153,2.289-0.285,5.098-0.478c2.81-0.206,5.102-0.09,5.115-0.247
									c0.018-0.137-2.292-0.496-5.153-0.287C128.754,381.907,126.518,382.588,126.555,382.721z"/>
							</g>
						</g>
					</g>
				</g>
			</g>
		</g>
		<g>
			<g>
				<g>
					<g>
						<g>
							<path style="fill:#263238;" d="M113.869,420.872l-6.318,33.232c-0.418,2.198-2.339,3.788-4.576,3.788H84.306
								c-2.279,0-4.223-1.648-4.596-3.896l-5.493-33.124H113.869z"/>
						</g>
					</g>
				</g>
			</g>
			<g>
				<g>
					<g>
						<g>
							<polygon style="fill:#455A64;" points="111.816,431.672 76.115,431.672 74.218,420.872 113.869,420.872 							"/>
						</g>
					</g>
				</g>
			</g>
			<g>
				<g>
					<g>
						<g>
							<polygon style="fill:#FAFAFA;" points="111.816,431.672 111.067,435.61 76.662,435.61 76.115,431.672 							"/>
						</g>
					</g>
				</g>
			</g>
		</g>
	</g>
</g>
<g id="Character">
	<g>
		<g>
			<g>
				<g>
					<g>
						<g>
							<g>
								<g>
									<g>
										<g>
											<g>
												<g>
													<g>
														<g>
															<path style="fill:#263238;" d="M387.172,427.822l0.788,19.362c0,0-19.416,7.303-19.618,10.895l37.596-0.179
																l0.011-30.218L387.172,427.822z"/>
														</g>
													</g>
												</g>
											</g>
										</g>
									</g>
								</g>
							</g>
						</g>
					</g>
				</g>
				<g>
					<g>
						<g>
							<g>
								<g>
									<g>
										<g>
											<g>
												<g>
													<g>
														<g>
															<g>
																<path style="fill:#E0E0E0;" d="M399.577,445.499c0.729,0.195,1.235,1.011,1.07,1.747
																	c-0.165,0.736-0.99,1.258-1.722,1.076c-0.732-0.182-1.37-1.143-1.123-1.856c0.246-0.713,1.249-1.273,1.916-0.92"/>
															</g>
														</g>
													</g>
												</g>
											</g>
										</g>
									</g>
								</g>
							</g>
						</g>
					</g>
				</g>
				<g>
					<g>
						<g>
							<g>
								<g>
									<g>
										<g>
											<g>
												<g>
													<g>
														<g>
															<path style="fill:#455A64;" d="M405.937,457.9l-0.118-3.046l-36.002,1.31c0,0-1.67,0.736-1.475,1.914L405.937,457.9z
																"/>
														</g>
													</g>
												</g>
											</g>
										</g>
									</g>
								</g>
							</g>
						</g>
					</g>
				</g>
				<g>
					<g>
						<g>
							<g>
								<g>
									<g>
										<g>
											<g>
												<g>
													<g>
														<g>
															<g>
																<path style="fill:#FFFFFF;" d="M387.349,446.995c0.007,0.184,0.925,0.263,1.832,0.848
																	c0.921,0.563,1.391,1.356,1.559,1.282c0.169-0.036-0.11-1.133-1.22-1.823
																	C388.418,446.603,387.309,446.827,387.349,446.995z"/>
															</g>
														</g>
													</g>
												</g>
											</g>
										</g>
									</g>
								</g>
							</g>
						</g>
					</g>
				</g>
				<g>
					<g>
						<g>
							<g>
								<g>
									<g>
										<g>
											<g>
												<g>
													<g>
														<g>
															<g>
																<path style="fill:#FFFFFF;" d="M383.414,448.645c-0.041,0.178,0.755,0.486,1.383,1.26
																	c0.65,0.755,0.811,1.594,0.994,1.585c0.173,0.028,0.294-1.048-0.504-1.995
																	C384.497,448.542,383.417,448.47,383.414,448.645z"/>
															</g>
														</g>
													</g>
												</g>
											</g>
										</g>
									</g>
								</g>
							</g>
						</g>
					</g>
				</g>
				<g>
					<g>
						<g>
							<g>
								<g>
									<g>
										<g>
											<g>
												<g>
													<g>
														<g>
															<g>
																<path style="fill:#FFFFFF;" d="M381.197,453.375c0.167,0.038,0.418-0.88-0.058-1.883
																	c-0.469-1.007-1.337-1.399-1.414-1.246c-0.103,0.152,0.457,0.688,0.835,1.518
																	C380.958,452.584,381.014,453.358,381.197,453.375z"/>
															</g>
														</g>
													</g>
												</g>
											</g>
										</g>
									</g>
								</g>
							</g>
						</g>
					</g>
				</g>
				<g>
					<g>
						<g>
							<g>
								<g>
									<g>
										<g>
											<g>
												<g>
													<g>
														<g>
															<g>
																<path style="fill:#FFFFFF;" d="M387.659,442.563c0.078,0.167,0.919-0.09,1.957-0.025
																	c1.039,0.044,1.849,0.389,1.943,0.231c0.106-0.133-0.686-0.809-1.91-0.869
																	C388.427,441.831,387.568,442.419,387.659,442.563z"/>
															</g>
														</g>
													</g>
												</g>
											</g>
										</g>
									</g>
								</g>
							</g>
						</g>
					</g>
				</g>
			</g>
		</g>
		<g>
			<g>
				<g>
					<g>
						<g>
							<g>
								<g>
									<g>
										<path style="fill:#263238;" d="M444.992,432.327l4.878,22.931l-1.372,19.249c-0.099,1.387,0.998,2.569,2.389,2.573l0,0
											c0.779,0.002,1.506-0.366,1.958-1.001c2.879-4.035,13.394-18.934,12.943-20.592c-0.522-1.92-3.539-24.529-3.539-24.529
											L444.992,432.327z"/>
									</g>
								</g>
							</g>
						</g>
					</g>
				</g>
				<g>
					<g>
						<g>
							<g>
								<g>
									<g>
										<path style="fill:#455A64;" d="M450.886,477.08l14.608-23.147l0.184,0.976c0.159,0.844,0.018,1.717-0.407,2.463
											c-1.138,1.995-4.401,7.436-12.357,18.695C452.451,476.722,451.688,477.104,450.886,477.08L450.886,477.08z"/>
									</g>
								</g>
							</g>
						</g>
					</g>
				</g>
				<g style="opacity:0.6;">
					<g>
						<g>
							<g>
								<g>
									<g>
										<g>
											<path style="fill:#FFFFFF;" d="M459.362,447.395c-0.502,0.508-0.525,1.417-0.039,1.939
												c0.487,0.522,1.411,0.554,1.922,0.055c0.51-0.499,0.572-1.589,0.03-2.053c-0.543-0.464-1.629-0.443-2.005,0.164"/>
										</g>
									</g>
								</g>
							</g>
						</g>
					</g>
				</g>
				<g>
					<g>
						<g>
							<g>
								<g>
									<g>
										<g>
											<path style="fill:#FFFFFF;" d="M454.25,466.02c-0.118,0.088-0.866-1.02-2.359-1.41c-1.481-0.435-2.692,0.13-2.748-0.006
												c-0.031-0.053,0.227-0.287,0.752-0.465c0.519-0.18,1.313-0.252,2.134-0.025c0.82,0.229,1.463,0.699,1.816,1.121
												C454.203,465.657,454.303,465.99,454.25,466.02z"/>
										</g>
									</g>
								</g>
							</g>
						</g>
					</g>
				</g>
				<g>
					<g>
						<g>
							<g>
								<g>
									<g>
										<g>
											<path style="fill:#FFFFFF;" d="M453.192,469.415c-0.091,0.12-0.972-0.489-2.228-0.605
												c-1.254-0.144-2.24,0.271-2.305,0.135c-0.089-0.105,0.928-0.803,2.358-0.647
												C452.449,468.438,453.3,469.33,453.192,469.415z"/>
										</g>
									</g>
								</g>
							</g>
						</g>
					</g>
				</g>
				<g>
					<g>
						<g>
							<g>
								<g>
									<g>
										<g>
											<path style="fill:#FFFFFF;" d="M456.557,461.489c-0.087,0.13-1.437-0.814-3.375-1.166
												c-1.932-0.382-3.534,0.002-3.568-0.151c-0.061-0.116,1.591-0.759,3.663-0.355
												C455.355,460.2,456.656,461.403,456.557,461.489z"/>
										</g>
									</g>
								</g>
							</g>
						</g>
					</g>
				</g>
				<g>
					<g>
						<g>
							<g>
								<g>
									<g>
										<g>
											<path style="fill:#FFFFFF;" d="M455.657,454.395c-0.035,0.15-1.408-0.142-3.076,0.111
												c-1.671,0.23-2.905,0.899-2.981,0.765c-0.085-0.101,1.112-1.023,2.908-1.275
												C454.3,453.729,455.71,454.274,455.657,454.395z"/>
										</g>
									</g>
								</g>
							</g>
						</g>
					</g>
				</g>
				<g>
					<g>
						<g>
							<g>
								<g>
									<g>
										<g>
											<path style="fill:#FFFFFF;" d="M454.396,447.627c-0.046,0.146-1.471-0.38-3.205,0.031
												c-1.743,0.372-2.805,1.457-2.909,1.344c-0.047-0.041,0.15-0.378,0.623-0.785c0.469-0.407,1.238-0.849,2.173-1.062
												c0.937-0.209,1.821-0.138,2.419,0.029C454.098,447.35,454.421,447.57,454.396,447.627z"/>
										</g>
									</g>
								</g>
							</g>
						</g>
					</g>
				</g>
				<g>
					<g>
						<g>
							<g>
								<g>
									<g>
										<g>
											<path style="fill:#FFFFFF;" d="M450.989,446.363c-0.029,0.006-0.14-0.294-0.196-0.865
												c-0.054-0.568-0.048-1.419,0.261-2.413c0.168-0.475,0.323-1.074,0.909-1.499c0.291-0.214,0.779-0.244,1.109,0.009
												c0.327,0.246,0.484,0.608,0.561,0.971c0.252,1.466-0.736,3.118-2.341,3.639c-1.617,0.493-3.291-0.167-4.184-1.306
												c-0.205-0.3-0.38-0.682-0.275-1.105c0.102-0.426,0.54-0.67,0.881-0.676c0.704-0.027,1.21,0.285,1.667,0.502
												c0.914,0.488,1.533,1.067,1.91,1.493c0.38,0.429,0.529,0.712,0.504,0.729c-0.069,0.076-0.796-1.021-2.578-1.897
												c-0.444-0.195-0.963-0.449-1.464-0.402c-0.245,0.022-0.433,0.156-0.482,0.366c-0.053,0.203,0.05,0.483,0.223,0.716
												c0.748,0.929,2.28,1.529,3.64,1.091c1.357-0.425,2.223-1.878,2.031-3.061c-0.05-0.284-0.18-0.555-0.363-0.695
												c-0.18-0.137-0.416-0.14-0.612-0.014c-0.414,0.265-0.623,0.806-0.793,1.255
												C450.748,445.076,451.095,446.367,450.989,446.363z"/>
										</g>
									</g>
								</g>
							</g>
						</g>
					</g>
				</g>
			</g>
		</g>
		<g>
			<g>
				<g>
					<path style="fill:#455A64;" d="M373.325,270.374c0,0-0.155,10.191,0.526,23.368c0.263,5.099,10.996,146.853,10.996,146.853
						l23.187,0.582l-3.194-132.485l3.995,0.973c0,0,12.216,44.184,14.874,54.293c3.165,12.035,20.166,80.222,20.166,80.222
						l21.194,0.776l-13.941-79.905l-12.031-76.053l-2.41-22.118L373.325,270.374z"/>
				</g>
			</g>
			<g>
				<g>
					<g>
						<path style="fill:#263238;" d="M408.835,295.286c0.013,0.03-0.333,0.221-0.981,0.521c-0.651,0.287-1.607,0.726-2.897,0.933
							c-0.643,0.101-1.374,0.117-2.137-0.038c-0.758-0.154-1.563-0.499-2.207-1.129c-0.644-0.631-1.047-1.502-1.295-2.402
							c-0.25-0.908-0.383-1.849-0.551-2.805c-0.644-3.838-1.057-7.337-1.285-9.875c-0.115-1.269-0.186-2.298-0.221-3.01
							c-0.034-0.712-0.035-1.107-0.001-1.11c0.034-0.003,0.099,0.387,0.191,1.093c0.102,0.809,0.227,1.808,0.376,2.99
							c0.316,2.524,0.783,6.005,1.424,9.832c0.327,1.891,0.534,3.815,1.682,4.968c1.147,1.132,2.779,1.288,3.977,1.143
							c1.238-0.154,2.203-0.534,2.871-0.766C408.449,295.385,408.821,295.253,408.835,295.286z"/>
					</g>
				</g>
			</g>
			<g>
				<g>
					<g>
						<path style="fill:#263238;" d="M402.307,277.164c-0.007-0.022,0.153-0.117,0.48-0.129c0.323-0.016,0.812,0.095,1.287,0.45
							c0.455,0.353,0.933,0.978,0.932,1.815c0.017,0.848-0.665,1.665-1.535,1.953c-0.862,0.312-1.904,0.093-2.416-0.584
							c-0.519-0.657-0.531-1.444-0.392-2.003c0.153-0.573,0.469-0.962,0.732-1.15c0.264-0.193,0.449-0.217,0.457-0.196
							c0.062,0.065-0.662,0.373-0.85,1.419c-0.083,0.493-0.019,1.153,0.399,1.639c0.402,0.497,1.193,0.66,1.908,0.41
							c0.716-0.246,1.236-0.864,1.244-1.503c0.028-0.64-0.33-1.198-0.7-1.534C403.058,277.047,402.299,277.254,402.307,277.164z"/>
					</g>
				</g>
			</g>
			<g>
				<g>
					<g>
						<path style="fill:#263238;" d="M438.811,287.632c0.001,0.034-0.28,0.069-0.793,0.104c-0.512,0.043-1.258,0.037-2.175-0.03
							c-1.833-0.128-4.366-0.637-6.941-1.793c-2.572-1.165-4.63-2.728-5.939-4.017c-0.658-0.643-1.155-1.199-1.462-1.611
							c-0.313-0.407-0.473-0.641-0.447-0.663c0.067-0.056,0.79,0.816,2.145,2.019c1.349,1.205,3.39,2.684,5.905,3.825
							c2.519,1.13,4.978,1.681,6.774,1.895C437.676,287.579,438.809,287.544,438.811,287.632z"/>
					</g>
				</g>
			</g>
			<g>
				<g>
					<g>
						<path style="fill:#263238;" d="M382.676,277.098c0.035,0.026-0.269,0.951-0.916,2.325c-0.644,1.373-1.663,3.17-2.987,4.879
							c-1.328,1.705-2.694,2.976-3.727,3.761c-1.034,0.789-1.719,1.136-1.735,1.085c-0.023-0.071,0.623-0.528,1.612-1.382
							c0.99-0.852,2.309-2.144,3.615-3.82c1.302-1.68,2.332-3.41,3.021-4.718C382.249,277.921,382.627,277.059,382.676,277.098z"/>
					</g>
				</g>
			</g>
		</g>
		<g>
			<g>
				<g>
					<path style="fill:#FFBE9D;" d="M395.994,130.586c0.728-9.351,8.516-16.574,17.895-16.599l0.932-0.003
						c10.051,0.559,15.19,9.408,14.353,19.439l-2.142,31.2l-17.912,18.618l-4.585-11.132l0.026-7.41c0,0-9.665-1.476-9.811-11.134
						C394.68,148.9,395.317,139.283,395.994,130.586z"/>
				</g>
			</g>
			<g>
				<g>
					<g>
						<g>
							<g>
								<g>
									<g>
										<g>
											<g>
												<path style="fill:#EB996E;" d="M404.481,164.686c0,0,6.169,0.354,12.646-3.739c0,0-2.957,6.959-12.598,6.116
													L404.481,164.686z"/>
											</g>
										</g>
									</g>
								</g>
							</g>
						</g>
					</g>
				</g>
			</g>
			<g>
				<g>
					<g>
						<g>
							<g>
								<g>
									<g>
										<g>
											<g>
												<g>
													<g>
														<g>
															<path style="fill:#263238;" d="M398.58,138.635c-0.024,0.728,0.573,1.349,1.334,1.388
																c0.759,0.038,1.395-0.519,1.418-1.248c0.024-0.729-0.573-1.35-1.332-1.389
																C399.239,137.348,398.603,137.907,398.58,138.635z"/>
														</g>
													</g>
												</g>
											</g>
										</g>
									</g>
								</g>
							</g>
						</g>
					</g>
				</g>
			</g>
			<g>
				<g>
					<g>
						<g>
							<g>
								<g>
									<g>
										<g>
											<g>
												<g>
													<g>
														<g>
															<g>
																<path style="fill:#263238;" d="M398.084,135.306c0.171,0.179,1.214-0.597,2.699-0.597
																	c1.483-0.021,2.574,0.739,2.734,0.557c0.079-0.081-0.096-0.405-0.571-0.749c-0.468-0.343-1.265-0.675-2.19-0.668
																	c-0.924,0.008-1.701,0.35-2.147,0.7C398.153,134.9,397.999,135.225,398.084,135.306z"/>
															</g>
														</g>
													</g>
												</g>
											</g>
										</g>
									</g>
								</g>
							</g>
						</g>
					</g>
				</g>
			</g>
			<g>
				<g>
					<g>
						<g>
							<g>
								<g>
									<g>
										<g>
											<g>
												<g>
													<g>
														<g>
															<path style="fill:#263238;" d="M412.005,139.008c-0.024,0.728,0.573,1.349,1.334,1.388
																c0.759,0.039,1.395-0.519,1.418-1.248c0.024-0.728-0.574-1.35-1.333-1.389
																C412.664,137.721,412.028,138.279,412.005,139.008z"/>
														</g>
													</g>
												</g>
											</g>
										</g>
									</g>
								</g>
							</g>
						</g>
					</g>
				</g>
			</g>
			<g>
				<g>
					<g>
						<g>
							<g>
								<g>
									<g>
										<g>
											<g>
												<g>
													<g>
														<g>
															<g>
																<path style="fill:#263238;" d="M412.674,135.542c0.172,0.18,1.216-0.596,2.699-0.597
																	c1.482-0.021,2.574,0.739,2.734,0.557c0.079-0.081-0.095-0.405-0.572-0.749c-0.468-0.343-1.265-0.675-2.189-0.669
																	c-0.924,0.008-1.701,0.35-2.148,0.7C412.745,135.137,412.59,135.462,412.674,135.542z"/>
															</g>
														</g>
													</g>
												</g>
											</g>
										</g>
									</g>
								</g>
							</g>
						</g>
					</g>
				</g>
			</g>
			<g>
				<g>
					<g>
						<g>
							<g>
								<g>
									<g>
										<g>
											<g>
												<g>
													<g>
														<g>
															<path style="fill:#263238;" d="M407.318,146.565c0.007-0.085-0.916-0.242-2.412-0.429
																c-0.379-0.038-0.738-0.112-0.803-0.371c-0.09-0.273,0.067-0.682,0.25-1.124c0.354-0.918,0.724-1.88,1.113-2.889
																c1.545-4.113,2.663-7.495,2.497-7.556c-0.167-0.061-1.554,3.224-3.099,7.338c-0.372,1.014-0.728,1.981-1.066,2.906
																c-0.142,0.431-0.388,0.92-0.193,1.488c0.103,0.283,0.382,0.488,0.625,0.553c0.243,0.074,0.456,0.077,0.644,0.088
																C406.379,146.645,407.312,146.649,407.318,146.565z"/>
														</g>
													</g>
												</g>
											</g>
										</g>
									</g>
								</g>
							</g>
						</g>
					</g>
				</g>
			</g>
			<g>
				<g>
					<g>
						<g>
							<g>
								<g>
									<g>
										<g>
											<g>
												<g>
													<g>
														<g>
															<path style="fill:#263238;" d="M411.689,147.58c-0.241-0.013-0.24,1.598-1.616,2.745
																c-1.374,1.151-3.091,0.975-3.104,1.2c-0.022,0.101,0.383,0.312,1.109,0.33c0.711,0.023,1.749-0.209,2.591-0.91
																c0.839-0.704,1.198-1.641,1.252-2.301C411.98,147.969,411.799,147.57,411.689,147.58z"/>
														</g>
													</g>
												</g>
											</g>
										</g>
									</g>
								</g>
							</g>
						</g>
					</g>
				</g>
			</g>
			<g>
				<g>
					<g>
						<g>
							<g>
								<g>
									<g>
										<g>
											<path style="fill:#263238;" d="M412.275,129.727c0.147,0.403,1.629,0.208,3.371,0.413
												c1.746,0.17,3.152,0.676,3.382,0.314c0.103-0.174-0.143-0.553-0.712-0.942c-0.564-0.388-1.463-0.757-2.509-0.87
												c-1.046-0.111-2.003,0.057-2.636,0.317C412.533,129.217,412.212,129.536,412.275,129.727z"/>
										</g>
									</g>
								</g>
							</g>
						</g>
					</g>
				</g>
			</g>
			<g>
				<g>
					<g>
						<g>
							<g>
								<g>
									<g>
										<g>
											<path style="fill:#263238;" d="M398.617,131.009c0.262,0.337,1.284-0.016,2.513-0.036c1.229-0.063,2.271,0.22,2.51-0.133
												c0.104-0.171-0.06-0.509-0.516-0.827c-0.449-0.317-1.2-0.575-2.045-0.547c-0.845,0.029-1.576,0.337-2.003,0.683
												C398.644,130.497,398.502,130.845,398.617,131.009z"/>
										</g>
									</g>
								</g>
							</g>
						</g>
					</g>
				</g>
			</g>
			<g>
				<g>
					<path style="fill:#263238;" d="M392.418,122.137c0.159-0.882,1.001-1.647,1.891-1.54c-0.477-0.155-0.968-0.317-1.351-0.641
						c-0.383-0.324-0.639-0.852-0.494-1.333c0.226-0.754,1.177-0.935,1.928-1.171c0.979-0.308,1.856-0.93,2.47-1.753
						c0.885-1.185,1.195-2.703,1.952-3.973c0.98-1.645,2.731-2.807,4.628-3.071c1.896-0.264,3.899,0.377,5.29,1.691
						c1.431-1.557,3.635-2.367,5.734-2.107c2.099,0.259,4.039,1.58,5.049,3.438c2.531-1.139,5.67-0.788,7.887,0.882
						c2.217,1.67,3.42,4.591,3.023,7.338l-5.907,3.856c-0.151-1.855-2.267-3.272-4.039-2.704c-1.8,0.576-2.901,2.71-4.78,2.907
						c-1.464,0.153-2.744-0.948-4.175-1.288c-1.737-0.413-3.538,0.329-5.068,1.25c-1.53,0.921-2.977,2.051-4.694,2.538
						c-2.014,0.57-4.188,0.182-6.146-0.555c-0.839-0.316-1.672-0.707-2.307-1.339C392.671,123.932,392.259,123.019,392.418,122.137z
						"/>
				</g>
			</g>
			<g>
				<g>
					<path style="fill:#263238;" d="M423.392,120.951l-27.537,0.626c0.855-1.9,2.383-3.423,4.042-4.683
						c3.577-2.716,7.975-4.415,12.466-4.496c4.491-0.082,13.637,5.382,16.893,8.477c2.605,2.476,2.59,4.621,2.59,4.621
						c0.416,3.57-1.579,7.63-2.372,11.136c-0.408,1.808-1.196,7.278-1.196,7.278s0,0-0.001,0c-1.517-0.004-2.082-1.211-1.852-2.711
						l0.28-5.886c0,0-5.163-3.664-2.723-10.377C424.375,124.401,425.21,121.948,423.392,120.951z"/>
				</g>
			</g>
			<g>
				<g>
					<path style="fill:#263238;" d="M427.123,134.91c1.262-4.916,2.401-10.177,0.773-14.984c0.272-0.019,0.544-0.038,0.817-0.057
						l0.348,0.239c1.525-0.562,3.385-0.028,4.38,1.258c0.994,1.286,1.044,3.22,0.117,4.555c1.629-0.123,3.233,1.197,3.428,2.818
						c0.134,1.119-0.323,2.217-0.795,3.241c-0.472,1.024-0.98,2.085-0.955,3.212c0.025,1.127,0.781,2.33,1.904,2.432
						c-0.468,1.169-1.849,1.889-3.076,1.604c0.414,0.942,1.102,1.762,1.959,2.332c-1.758,1.273-4.233,0.925-6.21,0.031
						c-1.173-0.53-2.332-1.302-2.839-2.485C426.411,137.795,426.768,136.292,427.123,134.91z"/>
				</g>
			</g>
			<g>
				<g>
					<path style="fill:#FFBE9D;" d="M427.734,140.578c0.164-0.072,6.631-1.981,6.438,4.623c-0.193,6.604-6.783,5.048-6.789,4.858
						C427.378,149.869,427.734,140.578,427.734,140.578z"/>
				</g>
			</g>
			<g>
				<g>
					<path style="fill:#EB996E;" d="M428.893,147.616c0.03-0.02,0.113,0.084,0.305,0.179c0.187,0.092,0.511,0.162,0.859,0.043
						c0.705-0.236,1.325-1.326,1.392-2.516c0.034-0.6-0.075-1.176-0.274-1.656c-0.188-0.489-0.49-0.836-0.839-0.908
						c-0.347-0.091-0.602,0.112-0.688,0.296c-0.094,0.182-0.056,0.315-0.091,0.325c-0.019,0.016-0.138-0.115-0.077-0.386
						c0.031-0.13,0.113-0.284,0.272-0.406c0.162-0.124,0.397-0.183,0.641-0.149c0.508,0.05,0.953,0.532,1.172,1.059
						c0.247,0.53,0.384,1.178,0.345,1.852c-0.081,1.33-0.799,2.555-1.762,2.803c-0.468,0.108-0.851-0.044-1.047-0.205
						C428.9,147.776,428.87,147.628,428.893,147.616z"/>
				</g>
			</g>
			<g>
				<g>
					<path style="fill:#455A64;" d="M434.425,134.915c0.02,0.012,0.178-0.253,0.099-0.77c-0.076-0.503-0.462-1.224-1.282-1.684
						c-0.811-0.463-1.917-0.55-3.041-0.644c-1.112-0.089-2.388-0.368-3.053-1.443c-0.664-1.047-0.719-2.35-0.615-3.446
						c0.126-1.111,0.39-2.126,0.51-2.995c0.299-1.755-0.067-2.859-0.125-2.828c-0.078,0.014,0.148,1.078-0.233,2.765
						c-0.162,0.846-0.462,1.834-0.623,3.005c-0.13,1.154-0.115,2.551,0.655,3.78c0.384,0.605,0.983,1.056,1.609,1.285
						c0.627,0.234,1.255,0.303,1.833,0.348c1.155,0.068,2.172,0.12,2.915,0.495c0.734,0.361,1.131,0.971,1.253,1.405
						C434.458,134.635,434.379,134.907,434.425,134.915z"/>
				</g>
			</g>
			<g>
				<g>
					<path style="fill:#455A64;" d="M435.934,131.994c0.026,0.009,0.14-0.192,0.187-0.602c0.043-0.403-0.006-1.031-0.377-1.687
						c-0.185-0.324-0.451-0.651-0.81-0.919c-0.355-0.28-0.831-0.445-1.282-0.555c-0.453-0.118-0.923-0.221-1.267-0.478
						c-0.343-0.255-0.506-0.688-0.531-1.194c-0.034-0.502,0.028-1.033,0-1.562c-0.022-0.524-0.098-1.025-0.211-1.492
						c-0.232-0.936-0.596-1.722-1.013-2.33c-0.416-0.627-1.06-0.921-1.486-0.886c-0.437,0.017-0.614,0.218-0.594,0.235
						c0.019,0.04,0.218-0.081,0.584-0.035c0.367,0.036,0.852,0.306,1.194,0.889c0.343,0.578,0.662,1.353,0.853,2.233
						c0.094,0.442,0.155,0.914,0.17,1.404c0.021,0.485-0.046,1.005-0.01,1.578c0.018,0.559,0.243,1.211,0.742,1.562
						c0.487,0.346,1.012,0.427,1.455,0.535c0.908,0.151,1.527,0.636,1.896,1.203C436.166,131.055,435.835,132.001,435.934,131.994z"
						/>
				</g>
			</g>
			<g>
				<g>
					<path style="fill:#455A64;" d="M396.857,115.707c-0.041,0.011,0.508,0.345,1.36-0.086c0.418-0.2,0.823-0.609,1.215-1.096
						c0.39-0.493,0.835-1.019,1.492-1.402c1.267-0.769,3.346-1.018,4.982,0.188c0.833,0.568,1.578,1.373,2.545,2.037
						c0.484,0.326,1.043,0.612,1.672,0.716c0.629,0.105,1.289-0.001,1.872-0.231c1.177-0.461,2.094-1.216,3.109-1.617
						c1.011-0.425,2.07-0.63,3.08-0.646c2.034-0.053,3.815,0.663,5.043,1.576c1.249,0.91,1.993,1.955,2.436,2.696
						c0.432,0.754,0.594,1.215,0.636,1.2c0.017-0.006-0.01-0.125-0.076-0.349c-0.068-0.223-0.192-0.545-0.385-0.946
						c-0.399-0.787-1.12-1.903-2.394-2.891c-1.251-0.99-3.121-1.789-5.267-1.759c-1.066,0.004-2.19,0.209-3.267,0.654
						c-1.095,0.433-2.031,1.192-3.098,1.602c-0.531,0.208-1.079,0.292-1.609,0.207c-0.529-0.085-1.021-0.329-1.472-0.629
						c-0.905-0.608-1.667-1.413-2.559-2.01c-0.881-0.625-1.95-0.91-2.908-0.871c-0.965,0.032-1.841,0.33-2.531,0.765
						c-0.699,0.433-1.17,1.036-1.528,1.534c-0.368,0.5-0.716,0.889-1.085,1.098C397.375,115.895,396.853,115.658,396.857,115.707z"
						/>
				</g>
			</g>
		</g>
		<g>
			<g>
				<g>
					<g>
						<g>
							<g>
								<g>
									<g>
										<g>
											<g>
												<g>
													<g>
														<path style="fill:#FFBE9D;" d="M358.16,203.231l-34.169-27l-4.868-5.112c0,0-11.642-10.87-12.627-12.057
															c-1.139-1.371-2.073-1.152-2.55-0.698c-0.743,0.708-0.494,2.141,0.447,3.348c0.325,0.417,5.721,6.792,5.721,6.792
															s-0.736-0.287-2.685-0.697c-1.95-0.41-4.749,0.759-6.975,2.737c-2.226,1.978-2.674,2.729-1.946,3.629
															c0.292,0.362,0.732,0.481,1.168,0.49c0.712,0.014,1.403-0.271,1.941-0.736c3.608-3.119,6.225-1.983,6.225-1.983
															l0.637,0.669c0,0-3.552,0.265-4.765,2.413c-0.198,0.35-0.3,0.694-0.344,1.026c-0.965,0.82-1.478,2.148-1.291,3.402
															c0.195,1.305,1.135,2.473,2.368,2.942c0.589,0.224,1.355,0.251,1.75-0.24c0.208-0.26,0.264-0.605,0.32-0.933
															c0.03-0.172,0.066-0.349,0.125-0.513l2.047,1.623c0,0,4.792,3.402,6.71,5.118l28.568,31.075
															c3.961,4.308,10.685,4.532,14.923,0.495l0,0C363.499,214.632,363.155,207.178,358.16,203.231z"/>
													</g>
												</g>
											</g>
										</g>
									</g>
								</g>
								<g>
									<g>
										<g>
											<g>
												<g>
													<g>
														<g>
															<path style="fill:#FFBE9D;" d="M322.57,176.667c-0.519,0.744-1.619,0.826-2.478,0.533
																c-0.859-0.293-1.593-0.868-2.428-1.222c-2.498-1.059-5.544-0.021-7.988-1.198c-0.341-0.164-0.71-0.474-0.622-0.841
																c0.082-0.341,0.492-0.467,0.836-0.532c2.943-0.563,5.885-1.125,8.828-1.688"/>
														</g>
													</g>
												</g>
											</g>
										</g>
									</g>
									<g>
										<g>
											<g>
												<g>
													<g>
														<g>
															<g>
																<path style="fill:#EB996E;" d="M318.717,171.719c-0.007-0.035-0.353-0.003-0.973,0.085
																	c-0.621,0.087-1.515,0.23-2.619,0.418c-1.147,0.203-2.449,0.433-3.871,0.684c-0.365,0.067-0.738,0.135-1.117,0.205
																	c-0.349,0.092-0.846,0.057-1.232,0.546c-0.18,0.253-0.133,0.637,0.034,0.85c0.157,0.223,0.356,0.36,0.564,0.473
																	c0.405,0.191,0.814,0.345,1.249,0.441c1.742,0.39,3.39,0.174,4.831,0.317c0.721,0.06,1.394,0.192,1.98,0.43
																	c0.585,0.237,1.104,0.567,1.613,0.821c1.003,0.562,2.057,0.613,2.657,0.339c0.622-0.266,0.759-0.664,0.737-0.661
																	c-0.037-0.037-0.227,0.294-0.803,0.473c-0.574,0.186-1.479,0.103-2.421-0.471c-0.481-0.264-0.99-0.617-1.619-0.893
																	c-0.629-0.277-1.349-0.433-2.099-0.509c-1.499-0.169-3.149,0.021-4.758-0.346c-0.4-0.086-0.783-0.234-1.131-0.394
																	c-0.334-0.167-0.54-0.447-0.41-0.6c0.116-0.189,0.521-0.267,0.9-0.336c0.379-0.075,0.75-0.149,1.114-0.222
																	c1.414-0.291,2.71-0.557,3.851-0.792c1.095-0.233,1.979-0.43,2.588-0.578
																	C318.39,171.852,318.724,171.754,318.717,171.719z"/>
															</g>
														</g>
													</g>
												</g>
											</g>
										</g>
									</g>
								</g>
								<g>
									<g>
										<g>
											<g>
												<g>
													<g>
														<g>
															<path style="fill:#EB996E;" d="M308.592,172.575c-0.041,0.053-0.428-0.586-1.449-0.884
																c-0.501-0.144-1.141-0.129-1.79,0.12c-0.653,0.24-1.297,0.68-1.941,1.194c-0.647,0.511-1.277,1.02-1.943,1.35
																c-0.663,0.326-1.331,0.497-1.908,0.449c-0.586-0.039-0.993-0.38-1.152-0.647c-0.166-0.272-0.184-0.449-0.172-0.453
																c0.029-0.013,0.092,0.148,0.276,0.376c0.182,0.225,0.542,0.482,1.062,0.49c0.513,0.016,1.137-0.164,1.754-0.487
																c0.62-0.325,1.225-0.823,1.878-1.34c0.651-0.519,1.335-0.978,2.043-1.22c0.704-0.253,1.425-0.245,1.96-0.057
																c0.541,0.181,0.904,0.481,1.114,0.707C308.535,172.405,308.608,172.564,308.592,172.575z"/>
														</g>
													</g>
												</g>
											</g>
										</g>
									</g>
								</g>
								<g>
									<g>
										<g>
											<g>
												<g>
													<g>
														<g>
															<path style="fill:#EB996E;" d="M304.037,161.242c0.038-0.027,0.439,0.464,1.081,1.26
																c0.719,0.883,1.577,1.935,2.524,3.098c0.965,1.149,1.838,2.188,2.571,3.06c0.661,0.78,1.069,1.265,1.035,1.298
																c-0.032,0.031-0.501-0.399-1.209-1.141c-0.709-0.742-1.653-1.8-2.652-3.006c-0.997-1.206-1.86-2.332-2.455-3.167
																C304.335,161.809,304.001,161.267,304.037,161.242z"/>
														</g>
													</g>
												</g>
											</g>
										</g>
									</g>
								</g>
								<g>
									<g>
										<g>
											<g>
												<g>
													<g>
														<g>
															<path style="fill:#EB996E;" d="M308.348,175.227c0.005,0.025-0.177,0.07-0.493,0.166
																c-0.299,0.097-0.8,0.269-1.025,0.774c-0.11,0.244-0.071,0.539,0.112,0.809c0.173,0.273,0.456,0.507,0.751,0.779
																c0.288,0.265,0.627,0.625,0.684,1.131c0.048,0.493-0.175,0.99-0.555,1.321c-0.389,0.341-0.909,0.449-1.366,0.401
																c-0.462-0.051-0.883-0.216-1.217-0.497c-0.614-0.552-1.023-1.145-1.342-1.663c-0.31-0.523-0.493-0.989-0.554-1.327
																c-0.06-0.341-0.014-0.532,0.001-0.529c0.03,0.001,0.03,0.186,0.124,0.498c0.095,0.312,0.302,0.743,0.627,1.234
																c0.329,0.482,0.763,1.059,1.338,1.553c0.547,0.442,1.541,0.623,2.171,0.082c0.307-0.266,0.484-0.671,0.45-1.039
																c-0.035-0.371-0.294-0.678-0.572-0.943c-0.277-0.268-0.579-0.526-0.775-0.856c-0.209-0.315-0.254-0.749-0.091-1.049
																c0.319-0.61,0.896-0.737,1.207-0.803C308.159,175.208,308.344,175.207,308.348,175.227z"/>
														</g>
													</g>
												</g>
											</g>
										</g>
									</g>
								</g>
								<g>
									<g>
										<g>
											<g>
												<g>
													<g>
														<g>
															<path style="fill:#EB996E;" d="M306.4,180.326c0.01-0.012,0.159,0.095,0.266,0.392
																c0.102,0.286,0.136,0.794-0.196,1.279c-0.326,0.473-1.012,0.815-1.766,0.736c-0.752-0.074-1.493-0.52-2.033-1.166
																c-0.542-0.65-0.832-1.441-0.878-2.169c-0.052-0.734,0.138-1.385,0.38-1.871c0.245-0.49,0.545-0.823,0.769-1.024
																c0.227-0.201,0.376-0.278,0.388-0.263c0.047,0.044-0.525,0.435-0.944,1.385c-0.202,0.469-0.352,1.079-0.288,1.749
																c0.057,0.667,0.333,1.387,0.828,1.981c0.493,0.591,1.162,0.998,1.812,1.075c0.648,0.084,1.249-0.189,1.546-0.573
																c0.302-0.388,0.316-0.837,0.259-1.104C306.483,180.475,306.376,180.343,306.4,180.326z"/>
														</g>
													</g>
												</g>
											</g>
										</g>
									</g>
								</g>
								<g>
									<g>
										<g>
											<g>
												<g>
													<g>
														<g>
															<path style="fill:#EB996E;" d="M314.388,180.936c-0.021-0.022,0.171-0.26,0.62-0.502
																c0.44-0.238,1.17-0.455,2.009-0.304l-0.163,0.242c-0.196-0.292-0.392-0.621-0.57-0.973
																c-1.004-1.962-0.99-3.793-0.907-3.779c0.1-0.017,0.234,1.743,1.202,3.629c0.173,0.341,0.358,0.661,0.54,0.949
																l0.202,0.318l-0.365-0.076c-0.749-0.156-1.427-0.002-1.863,0.174C314.648,180.791,314.416,180.97,314.388,180.936z"
																/>
														</g>
													</g>
												</g>
											</g>
										</g>
									</g>
								</g>
								<g>
									<g>
										<g>
											<g>
												<g>
													<g>
														<g>
															<path style="fill:#EB996E;" d="M305.175,170.117c0.085-0.02,0.221,0.646-0.142,1.356
																c-0.357,0.714-0.973,1.001-1.007,0.92c-0.054-0.08,0.405-0.446,0.712-1.069
																C305.056,170.708,305.078,170.122,305.175,170.117z"/>
														</g>
													</g>
												</g>
											</g>
										</g>
									</g>
								</g>
							</g>
						</g>
						<g>
							<g>
								<g>
									<path style="fill:#FF725E;" d="M356.612,221.193l19.73-13.666c0,0-1.735,52.903-1.73,53.394c0,0-3.615,1.43-2.972,5.205
										l1.044,5.329c21.728,4.991,43.257,8.239,65.166,0.165l2.493-42.137l7.686-51.467l-17.628-7.501l-3.017-6.945l-18.263,19.67
										l-4.671-12.701l0.127-4.791l-4.421,4.798l-21.41,3.483l-26.655,21.611l-8.742-7.067l-13.189,18.315l14.985,15.144
										C348.954,223.047,352.992,222.751,356.612,221.193z"/>
								</g>
							</g>
							<g>
								<g>
									<g>
										<path style="fill:#263238;" d="M406.428,180.841c0.047,0.058-0.792,0.255-1.28,1.428c-0.247,0.57-0.376,1.305-0.389,2.178
											c-0.04,0.863,0.017,1.9-0.422,2.965l-0.213,0.518l-0.224-0.516c-0.594-1.371-1.001-2.937-1.398-4.587
											c-0.754-3.24-1.236-6.206-1.558-8.355c-0.317-2.151-0.445-3.49-0.375-3.501c0.072-0.011,0.329,1.308,0.738,3.439
											c0.414,2.129,0.953,5.08,1.702,8.297c0.391,1.634,0.787,3.199,1.327,4.51l-0.437,0.002
											c0.404-0.918,0.392-1.917,0.46-2.793c0.044-0.883,0.221-1.691,0.526-2.279c0.296-0.598,0.706-0.973,1.022-1.141
											C406.226,180.834,406.424,180.823,406.428,180.841z"/>
									</g>
								</g>
							</g>
							<g>
								<g>
									<g>
										<path style="fill:#263238;" d="M429.382,172.933c0.027,0.023-0.189,0.331-0.605,0.869
											c-0.415,0.537-1.03,1.304-1.797,2.244c-1.535,1.88-3.683,4.454-6.08,7.276c-1.368,1.596-2.663,3.106-3.818,4.454
											l-0.296,0.345l-0.109-0.438c-0.542-2.172-0.983-4.01-1.278-5.298c-0.12-0.646-0.481-1.016-0.83-1.023
											c-0.335-0.031-0.46,0.165-0.48,0.138c-0.025,0.008,0.069-0.265,0.485-0.286c0.193-0.005,0.45,0.06,0.658,0.27
											c0.206,0.202,0.339,0.504,0.437,0.827c0.376,1.278,0.878,3.092,1.462,5.256l-0.405-0.093
											c1.143-1.358,2.423-2.879,3.777-4.488c2.397-2.822,4.589-5.358,6.196-7.177c0.803-0.91,1.461-1.64,1.924-2.137
											C429.085,173.174,429.354,172.91,429.382,172.933z"/>
									</g>
								</g>
							</g>
							<g>
								<g>
									<g>
										<path style="fill:#263238;" d="M403.007,255.735c-0.018,0-0.035-0.231-0.051-0.671c-0.011-0.493-0.026-1.132-0.043-1.924
											c-0.031-1.671-0.032-4.089,0.004-7.077c0.069-5.976,0.353-14.231,1.03-23.326c0.683-9.098,1.631-17.305,2.451-23.224
											c0.409-2.96,0.77-5.351,1.049-6.999c0.135-0.781,0.245-1.41,0.329-1.896c0.081-0.432,0.132-0.658,0.15-0.656
											s0.001,0.234-0.046,0.671c-0.06,0.49-0.137,1.123-0.232,1.91c-0.217,1.719-0.517,4.1-0.884,7.017
											c-0.726,5.927-1.615,14.129-2.297,23.216c-0.676,9.084-1.018,17.326-1.181,23.295c-0.07,2.938-0.128,5.338-0.169,7.07
											c-0.023,0.792-0.04,1.43-0.054,1.923C403.043,255.504,403.024,255.735,403.007,255.735z"/>
									</g>
								</g>
							</g>
							<g>
								<g>
									<g>
										<path style="fill:#263238;" d="M397.958,267.884c-0.142,0.027-0.542-1.969-0.463-4.449
											c0.072-2.475,0.384-4.448,0.515-4.439c0.155,0.011,0.076,2.008,0.005,4.451C397.938,265.89,398.1,267.862,397.958,267.884
											z"/>
									</g>
								</g>
							</g>
							<g>
								<g>
									<g>
										<path style="fill:#263238;" d="M423.363,253.333c0.011,0.034-0.558,0.247-1.596,0.602
											c-1.037,0.36-2.552,0.836-4.436,1.384c-3.767,1.1-9.036,2.419-14.935,3.47c-5.903,1.046-11.304,1.622-15.219,1.888
											c-1.958,0.134-3.544,0.209-4.642,0.229c-1.097,0.024-1.704,0.021-1.706-0.015c-0.001-0.036,0.602-0.101,1.695-0.187
											c1.179-0.1,2.737-0.233,4.622-0.393c3.899-0.358,9.275-0.991,15.158-2.033c5.88-1.048,11.144-2.306,14.928-3.312
											c1.825-0.499,3.334-0.911,4.475-1.223C422.762,253.446,423.352,253.299,423.363,253.333z"/>
									</g>
								</g>
							</g>
							<g>
								<g>
									<g>
										<path style="fill:#263238;" d="M376.283,219.649c-0.144-0.001-0.234-7.357-0.202-16.429
											c0.032-9.075,0.175-16.429,0.319-16.428c0.144,0,0.234,7.355,0.202,16.43C376.57,212.294,376.427,219.65,376.283,219.649z
											"/>
									</g>
								</g>
							</g>
						</g>
					</g>
					<g style="opacity:0.3;">
						<g>
							<g>
								<path d="M410.81,184.938c1.096,0.028,2.203,0.68,2.402,1.757c0.199,1.078,0.05,2.206,0.331,3.265
									c0.281,1.059,1.245,2.091,2.318,1.869c0.651-0.135,1.126-0.682,1.533-1.207c2.103-2.71,3.804-6.089,5.038-9.29
									c-0.03,0.077-5.538,6.359-5.538,6.359c-0.17-1.577-0.668-3.148-1.243-4.627c-0.186-0.477-0.397-1.293-0.863-1.507
									c-0.752-0.344-1.747,0.756-2.244,1.416c-0.497,0.66-1.586,1.81-1.736,1.865"/>
							</g>
						</g>
					</g>
					<g style="opacity:0.3;">
						<g>
							<g>
								<path d="M401.78,179.235c0.184,3.454,0.723,7.076,2.017,10.283c0.132,0.327,0.277,0.663,0.54,0.897
									c0.263,0.234,0.678,0.335,0.972,0.14c0.216-0.143,0.904-1.884,0.992-2.127c0.512-1.428,2.585-1.56,2.585-1.56
									s-0.825-3.673-1.354-4.76c-0.24-0.493-0.748-0.921-1.289-0.83c-0.643,0.107-1.342,0.982-1.421,1.63
									c-0.313,2.567-0.274,3.744-0.651,4.638c-0.973-2.73-1.76-6.02-2.402-8.405"/>
							</g>
						</g>
					</g>
					<g style="opacity:0.3;">
						<g>
							<g>
								<path d="M417.118,254.988c1.031-0.551,1.158-2.135,0.478-3.085c-0.68-0.951-1.962-1.333-3.122-1.187
									c-1.16,0.146-2.216,0.741-3.163,1.426c-0.948,0.685-1.824,1.471-2.82,2.083c-2.451,1.507-5.435,1.849-8.311,1.895
									c-2.876,0.046-5.784-0.163-8.608,0.384c-2.824,0.548-5.645,2.003-7.008,4.537
									C384.565,261.04,409.146,259.252,417.118,254.988z"/>
							</g>
						</g>
					</g>
				</g>
			</g>
			<g>
				<path style="fill:#FF725E;" d="M448.028,178.017c0,0,7.439,5.298,9.242,10.104c1.803,4.805,8.447,37.772,9.533,43.403
					c1.365,7.076,1.409,15.834-8.783,19.161c-3.789,1.237-27.005-0.656-27.005-0.656l0.751-16.493l12.535,0.477
					c0,0-0.756-1.119,1.047-2.453l-3.979-21.451c0,0,1.474-22.779,1.654-23.317C443.204,186.253,448.028,178.017,448.028,178.017z"
					/>
			</g>
			<g>
				<g>
					<path style="fill:#263238;" d="M448.403,178.571c0.081,0.154-3.117,1.104-5.829,3.993c-2.759,2.845-3.557,6.084-3.715,6.011
						c-0.055-0.012,0.056-0.827,0.541-2.057c0.48-1.227,1.399-2.844,2.797-4.313c1.402-1.464,2.973-2.459,4.176-2.996
						C447.58,178.665,448.388,178.516,448.403,178.571z"/>
				</g>
			</g>
			<g>
				<g>
					<path style="fill:#263238;" d="M452.462,237.326c-0.087,0.023-0.25-0.543-0.75-1.316c-0.493-0.774-1.364-1.729-2.548-2.492
						c-1.181-0.763-2.405-1.184-3.314-1.305c-0.909-0.137-1.488-0.028-1.506-0.115c-0.019-0.05,0.558-0.299,1.542-0.252
						c0.978,0.032,2.311,0.426,3.561,1.235c1.253,0.807,2.144,1.873,2.583,2.744C452.478,236.699,452.515,237.319,452.462,237.326z"
						/>
				</g>
			</g>
			<g>
				<g>
					<path style="fill:#263238;" d="M438.956,197.056c0.035-0.007,0.158,0.465,0.349,1.325c0.2,0.961,0.455,2.186,0.76,3.65
						c0.62,3.087,1.441,7.358,2.316,12.081c0.875,4.725,1.639,9.007,2.166,12.111c0.24,1.476,0.44,2.711,0.598,3.68
						c0.13,0.871,0.185,1.355,0.149,1.361c-0.035,0.006-0.158-0.467-0.349-1.327c-0.2-0.961-0.455-2.186-0.76-3.651
						c-0.62-3.087-1.44-7.357-2.315-12.08c-0.875-4.721-1.638-9.002-2.165-12.105c-0.24-1.477-0.44-2.712-0.598-3.681
						C438.976,197.548,438.921,197.063,438.956,197.056z"/>
				</g>
			</g>
			<g>
				<g>
					<path style="fill:#263238;" d="M431.015,250.029c-0.033-0.002-0.045-0.453-0.037-1.275c0.021-0.916,0.048-2.087,0.08-3.495
						c0.089-2.964,0.245-7.089,0.45-11.734l0.011-0.257l0.257,0.01c0.66,0.025,1.359,0.052,2.067,0.079
						c3.859,0.168,7.441,0.323,10.453,0.454l0.072,0.003l0.053,0.043c1.951,1.593,2.952,3.49,3.429,4.825
						c0.241,0.675,0.363,1.224,0.428,1.598c0.058,0.376,0.07,0.578,0.05,0.582c-0.06,0.013-0.173-0.793-0.708-2.091
						c-0.533-1.281-1.563-3.084-3.466-4.577l0.125,0.046c-3.012-0.105-6.595-0.229-10.456-0.364
						c-0.708-0.028-1.406-0.056-2.067-0.082l0.268-0.247c-0.219,4.645-0.438,8.767-0.619,11.727
						c-0.096,1.406-0.176,2.574-0.238,3.488C431.101,249.582,431.048,250.031,431.015,250.029z"/>
				</g>
			</g>
		</g>
		<g>
			<g>
				<g>
					<g>
						<g>
							<path style="fill:#455A64;" d="M412.687,230.061l-9.706-19.777c-0.659-1.343-2.025-2.195-3.522-2.195h-24.387
								c-0.905,0-1.483,0.965-1.056,1.763l16.507,30.817c0.463,0.864,1.363,1.403,2.343,1.403h25.293L412.687,230.061z"/>
						</g>
					</g>
				</g>
				<g>
					<g>
						<g>
							<g>
								<path style="fill:#263238;" d="M374.179,209.996c0,0.016,0.168,0.029,0.488,0.039c0.371,0.006,0.832,0.014,1.397,0.023
									c1.278,0,3.016,0.001,5.136,0.001c4.392-0.038,10.348-0.089,16.93-0.145c0.806,0.033,1.6,0.163,2.251,0.544
									c0.655,0.373,1.123,0.999,1.497,1.656c0.709,1.351,1.305,2.761,1.923,4.046c1.211,2.582,2.306,4.915,3.235,6.897
									c0.915,1.912,1.666,3.48,2.217,4.633c0.252,0.505,0.458,0.918,0.624,1.25c0.147,0.283,0.231,0.429,0.246,0.423
									c0.014-0.007-0.042-0.165-0.162-0.461c-0.145-0.341-0.325-0.766-0.546-1.286c-0.519-1.168-1.224-2.756-2.085-4.694
									c-0.904-1.993-1.968-4.34-3.146-6.938c-0.613-1.303-1.18-2.674-1.915-4.09c-0.388-0.69-0.9-1.395-1.658-1.83
									c-0.75-0.44-1.623-0.573-2.461-0.608c-6.642,0.044-12.613,0.188-16.954,0.279c-2.119,0.059-3.857,0.108-5.134,0.144
									c-0.564,0.025-1.026,0.046-1.396,0.062C374.346,209.962,374.179,209.98,374.179,209.996z"/>
							</g>
						</g>
					</g>
				</g>
				<g>
					<g>
						<g>
							<path style="fill:#FFFFFF;" d="M389.205,214.329c-0.591,0.307-0.613,0.795-0.366,1.223c0.248,0.429,0.814,0.621,1.291,0.489
								c0.316-0.087,0.611-0.326,0.672-0.649c0.062-0.322-0.234-1.019-0.745-1.125C390.058,214.268,389.499,214.176,389.205,214.329
								z"/>
						</g>
					</g>
				</g>
			</g>
			<g>
				<g>
					<g>
						<path style="fill:#FFBE9D;" d="M431.492,234.187l-6.066-0.588c0,0-2.742-3.115-3.825-4.062
							c-1.082-0.947-7.259-3.973-7.259-3.973s-3.211-3.411-3.635-3.36c-0.424,0.051-1.739,0.452-1.168,2.149
							c0.55,1.633,1.455,3.81,2.117,4.839l-12.207,1.738c-0.769,0.109-1.476,0.53-1.88,1.194c-0.271,0.446-0.35,0.911,0.257,1.129
							c1.35,0.484,6.703,1.133,6.703,1.133l-2.394-0.32c0,0-0.231,2.281,1.364,3.159c1.587,0.873,1.714,1.062,1.714,1.062
							s0.324,2.092,1.063,2.865c0.739,0.773,8.06,3.492,8.06,3.492s4.563,0.773,6.779,0.399l9.901,1.503L431.492,234.187z"/>
					</g>
				</g>
			</g>
			<g>
				<g>
					<g>
						<g>
							<path style="fill:#EB996E;" d="M410.484,229.387c0.018,0.122,1.568-0.001,3.484-0.028c1.918-0.018,3.492-0.111,3.486-0.245
								c-0.006-0.107-1.557-0.209-3.495-0.191C412.017,228.95,410.464,229.27,410.484,229.387z"/>
						</g>
					</g>
				</g>
			</g>
			<g>
				<g>
					<g>
						<g>
							<path style="fill:#EB996E;" d="M412.77,234.622c0.022-0.135-2.284-0.477-5.128-0.462c-1.421-0.01-2.703,0.016-3.63,0.025
								c-0.927,0.012-1.5,0.004-1.507,0.066c-0.007,0.057,0.564,0.175,1.497,0.242c0.932,0.071,2.219,0.094,3.636,0.103
								C410.475,234.582,412.753,234.725,412.77,234.622z"/>
						</g>
					</g>
				</g>
			</g>
			<g>
				<g>
					<g>
						<g>
							<path style="fill:#EB996E;" d="M413.251,238.627c-0.016-0.128-1.806,0.032-4.005-0.084c-2.201-0.105-3.966-0.443-3.994-0.318
								c-0.031,0.108,1.724,0.645,3.972,0.753C411.471,239.096,413.271,238.737,413.251,238.627z"/>
						</g>
					</g>
				</g>
			</g>
			<g>
				<g>
					<g>
						<g>
							<path style="fill:#EB996E;" d="M413.051,243.203c0.12,0.005,0.24-0.497,0.268-1.122c0.028-0.625-0.047-1.136-0.168-1.141
								c-0.12-0.005-0.24,0.497-0.268,1.122C412.855,242.687,412.93,243.198,413.051,243.203z"/>
						</g>
					</g>
				</g>
			</g>
			<g>
				<g>
					<g>
						<g>
							<path style="fill:#EB996E;" d="M413.502,237.699c0.122-0.024,0.138-0.43,0.298-0.875c0.149-0.449,0.387-0.778,0.306-0.872
								c-0.067-0.096-0.522,0.158-0.718,0.73C413.188,237.252,413.389,237.733,413.502,237.699z"/>
						</g>
					</g>
				</g>
			</g>
			<g>
				<g>
					<g>
						<g>
							<path style="fill:#EB996E;" d="M414.253,232.152c0.123-0.002,0.217-0.273,0.33-0.581c0.108-0.31,0.208-0.579,0.114-0.659
								c-0.088-0.079-0.385,0.12-0.524,0.511C414.032,231.815,414.135,232.157,414.253,232.152z"/>
						</g>
					</g>
				</g>
			</g>
		</g>
	</g>
</g>
</svg>
